  0
SECTION
  2
HEADER
  9
$ACADVER
  1
AC1014
  9
$HANDSEED
  5
FFFF
  9
$INSUNITS
 70
     5
  9
$MEASUREMENT
 70
     1
  0
ENDSEC
  0
SECTION
  2
TABLES
  0
TABLE
  2
VPORT
  5
8
330
0
100
AcDbSymbolTable
 70
     4
  0
VPORT
  5
2E
330
8
100
AcDbSymbolTableRecord
100
AcDbViewportTableRecord
  2
*ACTIVE
 70
     0
 10
0.0
 20
0.0
 11
1.0
 21
1.0
 12
210.0
 22
148.5
 13
0.0
 23
0.0
 14
10.0
 24
10.0
 15
10.0
 25
10.0
 16
0.0
 26
0.0
 36
1.0
 17
0.0
 27
0.0
 37
0.0
 40
341.0
 41
1.24
 42
50.0
 43
0.0
 44
0.0
 50
0.0
 51
0.0
 71
     0
 72
   100
 73
     1
 74
     3
 75
     0
 76
     0
 77
     0
 78
     0
  0
ENDTAB
  0
TABLE
  2
LTYPE
  5
5
330
0
100
AcDbSymbolTable
 70
     1
  0
LTYPE
  5
14
330
5
100
AcDbSymbolTableRecord
100
AcDbLinetypeTableRecord
  2
BYBLOCK
 70
     0
  3

 72
    65
 73
     0
 40
0.0
  0
LTYPE
  5
15
330
5
100
AcDbSymbolTableRecord
100
AcDbLinetypeTableRecord
  2
BYLAYER
 70
     0
  3

 72
    65
 73
     0
 40
0.0
  0
LTYPE
  5
16
330
5
100
AcDbSymbolTableRecord
100
AcDbLinetypeTableRecord
  2
CONTINUOUS
 70
     0
  3
Solid line
 72
    65
 73
     0
 40
0.0
  0
ENDTAB
  0
TABLE
  2
LAYER
  5
2
100
AcDbSymbolTable
 70
1
  0
LAYER
  5
50
100
AcDbSymbolTableRecord
100
AcDbLayerTableRecord
  2
0
 70
0
  6
CONTINUOUS
  0
ENDTAB
  0
TABLE
  2
STYLE
  5
3
330
0
100
AcDbSymbolTable
 70
     1
  0
STYLE
  5
11
330
3
100
AcDbSymbolTableRecord
100
AcDbTextStyleTableRecord
  2
STANDARD
 70
     0
 40
0.0
 41
1.0
 50
0.0
 71
     0
 42
2.5
  3
txt
  4

  0
ENDTAB
  0
TABLE
  2
VIEW
  5
6
330
0
100
AcDbSymbolTable
 70
     0
  0
ENDTAB
  0
TABLE
  2
UCS
  5
7
330
0
100
AcDbSymbolTable
 70
     0
  0
ENDTAB
  0
TABLE
  2
APPID
  5
9
330
0
100
AcDbSymbolTable
 70
     2
  0
APPID
  5
12
330
9
100
AcDbSymbolTableRecord
100
AcDbRegAppTableRecord
  2
ACAD
 70
     0
  0
ENDTAB
  0
TABLE
  2
DIMSTYLE
  5
A
330
0
100
AcDbSymbolTable
 70
     1
  0
DIMSTYLE
105
27
330
A
100
AcDbSymbolTableRecord
100
AcDbDimStyleTableRecord
  2
ISO-25
 70
     0
  3

  4

  5

  6

  7

 40
1.0
 41
2.5
 42
0.625
 43
3.75
 44
1.25
 45
0.0
 46
0.0
 47
0.0
 48
0.0
140
2.5
141
2.5
142
0.0
143
0.03937007874016
144
1.0
145
0.0
146
1.0
147
0.625
 71
     0
 72
     0
 73
     0
 74
     0
 75
     0
 76
     0
 77
     1
 78
     8
170
     0
171
     3
172
     1
173
     0
174
     0
175
     0
176
     0
177
     0
178
     0
270
     2
271
     2
272
     2
273
     2
274
     3
340
11
275
     0
280
     0
281
     0
282
     0
283
     0
284
     8
285
     0
286
     0
287
     3
288
     0
  0
ENDTAB
  0
TABLE
  2
BLOCK_RECORD
  5
1
330
0
100
AcDbSymbolTable
 70
     1
  0
BLOCK_RECORD
  5
1F
330
1
100
AcDbSymbolTableRecord
100
AcDbBlockTableRecord
  2
*MODEL_SPACE
  0
BLOCK_RECORD
  5
1B
330
1
100
AcDbSymbolTableRecord
100
AcDbBlockTableRecord
  2
*PAPER_SPACE
  0
ENDTAB
  0
ENDSEC
  0
SECTION
  2
BLOCKS
  0
BLOCK
  5
20
330
1F
100
AcDbEntity
  8
0
100
AcDbBlockBegin
  2
*MODEL_SPACE
 70
     0
 10
0.0
 20
0.0
 30
0.0
  3
*MODEL_SPACE
  1

  0
ENDBLK
  5
21
330
1F
100
AcDbEntity
  8
0
100
AcDbBlockEnd
  0
BLOCK
  5
1C
330
1B
100
AcDbEntity
 67
     1
  8
0
100
AcDbBlockBegin
  2
*PAPER_SPACE
  1

  0
ENDBLK
  5
1D
330
1B
100
AcDbEntity
 67
     1
  8
0
100
AcDbBlockEnd
  0
ENDSEC
  0
SECTION
  2
ENTITIES
  0
LWPOLYLINE
  5
100
100
AcDbEntity
  8
0
 62
7
100
AcDbPolyline
 90
210
 70
1
 10
6.685938
 20
10.119319
 30
0.0
 10
6.685938
 20
10.119319
 30
0.0
 10
6.652113
 20
10.079256
 30
0.0
 10
6.633659
 20
10.055911
 30
0.0
 10
6.601040
 20
10.014812
 30
0.0
 10
6.579511
 20
9.986744
 30
0.0
 10
6.579511
 20
9.986744
 30
0.0
 10
6.605520
 20
9.965911
 30
0.0
 10
6.631241
 20
9.944892
 30
0.0
 10
6.631241
 20
9.944892
 30
0.0
 10
6.627246
 20
9.939592
 30
0.0
 10
6.627246
 20
9.939592
 30
0.0
 10
6.606721
 20
9.912018
 30
0.0
 10
6.576016
 20
9.870687
 30
0.0
 10
6.556064
 20
9.842688
 30
0.0
 10
6.536411
 20
9.814481
 30
0.0
 10
6.517061
 20
9.786069
 30
0.0
 10
6.498018
 20
9.757454
 30
0.0
 10
6.479281
 20
9.728638
 30
0.0
 10
6.460857
 20
9.699622
 30
0.0
 10
6.442754
 20
9.670412
 30
0.0
 10
6.424974
 20
9.641009
 30
0.0
 10
6.407519
 20
9.611413
 30
0.0
 10
6.390394
 20
9.581629
 30
0.0
 10
6.373607
 20
9.551660
 30
0.0
 10
6.357162
 20
9.521508
 30
0.0
 10
6.341057
 20
9.491174
 30
0.0
 10
6.325309
 20
9.460664
 30
0.0
 10
6.325309
 20
9.460664
 30
0.0
 10
6.305772
 20
9.421579
 30
0.0
 10
6.286823
 20
9.382214
 30
0.0
 10
6.286823
 20
9.382214
 30
0.0
 10
6.310926
 20
9.364949
 30
0.0
 10
6.334857
 20
9.347444
 30
0.0
 10
6.358612
 20
9.329701
 30
0.0
 10
6.382190
 20
9.311720
 30
0.0
 10
6.405583
 20
9.293503
 30
0.0
 10
6.428787
 20
9.275049
 30
0.0
 10
6.451805
 20
9.256361
 30
0.0
 10
6.474633
 20
9.237440
 30
0.0
 10
6.497263
 20
9.218286
 30
0.0
 10
6.519694
 20
9.198900
 30
0.0
 10
6.541926
 20
9.179285
 30
0.0
 10
6.563951
 20
9.159440
 30
0.0
 10
6.585767
 20
9.139366
 30
0.0
 10
6.607372
 20
9.119065
 30
0.0
 10
6.647047
 20
9.079385
 30
0.0
 10
6.668219
 20
9.058633
 30
0.0
 10
6.668219
 20
9.058633
 30
0.0
 10
6.666181
 20
9.055069
 30
0.0
 10
6.666181
 20
9.055069
 30
0.0
 10
6.650431
 20
9.027417
 30
0.0
 10
6.635035
 20
8.999670
 30
0.0
 10
6.635035
 20
8.999670
 30
0.0
 10
6.629645
 20
8.989781
 30
0.0
 10
6.629645
 20
8.989781
 30
0.0
 10
6.631368
 20
8.988598
 30
0.0
 10
6.651153
 20
8.968051
 30
0.0
 10
6.670717
 20
8.947293
 30
0.0
 10
6.690060
 20
8.926324
 30
0.0
 10
6.709181
 20
8.905149
 30
0.0
 10
6.728069
 20
8.883761
 30
0.0
 10
6.734533
 20
8.876102
 30
0.0
 10
6.752953
 20
8.854312
 30
0.0
 10
6.752953
 20
8.854312
 30
0.0
 10
6.757832
 20
8.863921
 30
0.0
 10
6.757832
 20
8.863921
 30
0.0
 10
6.773224
 20
8.893584
 30
0.0
 10
6.789057
 20
8.923156
 30
0.0
 10
6.789057
 20
8.923156
 30
0.0
 10
6.791091
 20
8.926873
 30
0.0
 10
6.791091
 20
8.926873
 30
0.0
 10
6.812105
 20
8.902022
 30
0.0
 10
6.844995
 20
8.862994
 30
0.0
 10
6.865385
 20
8.837643
 30
0.0
 10
6.885458
 20
8.812047
 30
0.0
 10
6.905211
 20
8.786205
 30
0.0
 10
6.924638
 20
8.760119
 30
0.0
 10
6.943732
 20
8.733800
 30
0.0
 10
6.962496
 20
8.707240
 30
0.0
 10
6.980916
 20
8.680443
 30
0.0
 10
6.998993
 20
8.653421
 30
0.0
 10
7.016716
 20
8.626169
 30
0.0
 10
7.034086
 20
8.598685
 30
0.0
 10
7.051094
 20
8.570984
 30
0.0
 10
7.067734
 20
8.543056
 30
0.0
 10
7.084005
 20
8.514912
 30
0.0
 10
7.099898
 20
8.486551
 30
0.0
 10
7.099898
 20
8.486551
 30
0.0
 10
7.113150
 20
8.506713
 30
0.0
 10
7.126602
 20
8.526746
 30
0.0
 10
7.140247
 20
8.546642
 30
0.0
 10
7.154089
 20
8.566407
 30
0.0
 10
7.154089
 20
8.566407
 30
0.0
 10
7.169500
 20
8.587940
 30
0.0
 10
7.185139
 20
8.609302
 30
0.0
 10
7.201002
 20
8.630503
 30
0.0
 10
7.217087
 20
8.651532
 30
0.0
 10
7.233393
 20
8.672395
 30
0.0
 10
7.249916
 20
8.693085
 30
0.0
 10
7.266658
 20
8.713608
 30
0.0
 10
7.283611
 20
8.733964
 30
0.0
 10
7.300769
 20
8.754142
 30
0.0
 10
7.318135
 20
8.774147
 30
0.0
 10
7.335704
 20
8.793970
 30
0.0
 10
7.353477
 20
8.813619
 30
0.0
 10
7.371447
 20
8.833096
 30
0.0
 10
7.389611
 20
8.852388
 30
0.0
 10
7.423974
 20
8.886891
 30
0.0
 10
7.442523
 20
8.905820
 30
0.0
 10
7.442523
 20
8.905820
 30
0.0
 10
7.447524
 20
8.910833
 30
0.0
 10
7.447524
 20
8.910833
 30
0.0
 10
7.464274
 20
8.873375
 30
0.0
 10
7.480362
 20
8.835826
 30
0.0
 10
7.480362
 20
8.835826
 30
0.0
 10
7.499911
 20
8.855721
 30
0.0
 10
7.519672
 20
8.875412
 30
0.0
 10
7.539648
 20
8.894895
 30
0.0
 10
7.543824
 20
8.898775
 30
0.0
 10
7.564209
 20
8.917838
 30
0.0
 10
7.571250
 20
8.924993
 30
0.0
 10
7.592037
 20
8.943632
 30
0.0
 10
7.613017
 20
8.962054
 30
0.0
 10
7.613017
 20
8.962054
 30
0.0
 10
7.596524
 20
8.997825
 30
0.0
 10
7.579472
 20
9.033486
 30
0.0
 10
7.579472
 20
9.033486
 30
0.0
 10
7.630526
 20
9.076709
 30
0.0
 10
7.668580
 20
9.107578
 30
0.0
 10
7.707164
 20
9.137782
 30
0.0
 10
7.746260
 20
9.167323
 30
0.0
 10
7.785854
 20
9.196195
 30
0.0
 10
7.825933
 20
9.224395
 30
0.0
 10
7.866481
 20
9.251917
 30
0.0
 10
7.907482
 20
9.278759
 30
0.0
 10
7.907482
 20
9.278759
 30
0.0
 10
7.941322
 20
9.300192
 30
0.0
 10
7.975447
 20
9.321168
 30
0.0
 10
7.975447
 20
9.321168
 30
0.0
 10
7.960806
 20
9.358185
 30
0.0
 10
7.945701
 20
9.395001
 30
0.0
 10
7.930104
 20
9.431617
 30
0.0
 10
7.914024
 20
9.468028
 30
0.0
 10
7.897461
 20
9.504229
 30
0.0
 10
7.880426
 20
9.540217
 30
0.0
 10
7.862927
 20
9.575987
 30
0.0
 10
7.844963
 20
9.611534
 30
0.0
 10
7.826550
 20
9.646855
 30
0.0
 10
7.807693
 20
9.681945
 30
0.0
 10
7.788391
 20
9.716799
 30
0.0
 10
7.768660
 20
9.751413
 30
0.0
 10
7.748501
 20
9.785784
 30
0.0
 10
7.727925
 20
9.819906
 30
0.0
 10
7.706932
 20
9.853775
 30
0.0
 10
7.675680
 20
9.903392
 30
0.0
 10
7.675680
 20
9.903392
 30
0.0
 10
7.681417
 20
9.907466
 30
0.0
 10
7.681417
 20
9.907466
 30
0.0
 10
7.705744
 20
9.924521
 30
0.0
 10
7.730294
 20
9.941410
 30
0.0
 10
7.730294
 20
9.941410
 30
0.0
 10
7.710691
 20
9.970211
 30
0.0
 10
7.680546
 20
10.014533
 30
0.0
 10
7.649732
 20
10.058363
 30
0.0
 10
7.631180
 20
10.085079
 30
0.0
 10
7.631180
 20
10.085079
 30
0.0
 10
7.606638
 20
10.068192
 30
0.0
 10
7.582297
 20
10.051144
 30
0.0
 10
7.582297
 20
10.051144
 30
0.0
 10
7.576564
 20
10.047084
 30
0.0
 10
7.576564
 20
10.047084
 30
0.0
 10
7.541487
 20
10.093343
 30
0.0
 10
7.519021
 20
10.122743
 30
0.0
 10
7.496240
 20
10.151902
 30
0.0
 10
7.473148
 20
10.180821
 30
0.0
 10
7.449751
 20
10.209499
 30
0.0
 10
7.426052
 20
10.237936
 30
0.0
 10
7.402048
 20
10.266129
 30
0.0
 10
7.377743
 20
10.294077
 30
0.0
 10
7.353137
 20
10.321779
 30
0.0
 10
7.328243
 20
10.349236
 30
0.0
 10
7.303057
 20
10.376446
 30
0.0
 10
7.277583
 20
10.403409
 30
0.0
 10
7.251826
 20
10.430123
 30
0.0
 10
7.225789
 20
10.456588
 30
0.0
 10
7.199469
 20
10.482803
 30
0.0
 10
7.172876
 20
10.508766
 30
0.0
 10
7.172876
 20
10.508766
 30
0.0
 10
7.142612
 20
10.483196
 30
0.0
 10
7.112644
 20
10.457318
 30
0.0
 10
7.112644
 20
10.457318
 30
0.0
 10
7.088593
 20
10.436142
 30
0.0
 10
7.064739
 20
10.414764
 30
0.0
 10
7.041080
 20
10.393186
 30
0.0
 10
7.017624
 20
10.371408
 30
0.0
 10
6.994365
 20
10.349428
 30
0.0
 10
6.971317
 20
10.327253
 30
0.0
 10
6.948468
 20
10.304877
 30
0.0
 10
6.925826
 20
10.282303
 30
0.0
 10
6.903396
 20
10.259532
 30
0.0
 10
6.881176
 20
10.236564
 30
0.0
 10
6.859172
 20
10.213400
 30
0.0
 10
6.837382
 20
10.190040
 30
0.0
 10
6.815807
 20
10.166484
 30
0.0
 10
6.794451
 20
10.142733
 30
0.0
 10
6.758542
 20
10.101550
 30
0.0
 10
6.737631
 20
10.077410
 30
0.0
 10
6.737631
 20
10.077410
 30
0.0
 10
6.711897
 20
10.098419
 30
0.0
  0
LWPOLYLINE
  5
101
100
AcDbEntity
  8
0
 62
7
100
AcDbPolyline
 90
199
 70
1
 10
3.960319
 20
1.347590
 30
0.0
 10
3.960319
 20
1.347590
 30
0.0
 10
3.957959
 20
1.353789
 30
0.0
 10
3.957959
 20
1.353789
 30
0.0
 10
3.945262
 20
1.386547
 30
0.0
 10
3.932233
 20
1.419177
 30
0.0
 10
3.903199
 20
1.495200
 30
0.0
 10
3.889504
 20
1.527555
 30
0.0
 10
3.875476
 20
1.559766
 30
0.0
 10
3.861115
 20
1.591827
 30
0.0
 10
3.846419
 20
1.623732
 30
0.0
 10
3.831391
 20
1.655481
 30
0.0
 10
3.816028
 20
1.687065
 30
0.0
 10
3.800331
 20
1.718481
 30
0.0
 10
3.784300
 20
1.749725
 30
0.0
 10
3.767934
 20
1.780788
 30
0.0
 10
3.751234
 20
1.811672
 30
0.0
 10
3.734200
 20
1.842367
 30
0.0
 10
3.716830
 20
1.872871
 30
0.0
 10
3.699124
 20
1.903175
 30
0.0
 10
3.699124
 20
1.903175
 30
0.0
 10
3.676783
 20
1.940342
 30
0.0
 10
3.653929
 20
1.977194
 30
0.0
 10
3.653929
 20
1.977194
 30
0.0
 10
3.690385
 20
1.994865
 30
0.0
 10
3.726612
 20
2.013010
 30
0.0
 10
3.762604
 20
2.031622
 30
0.0
 10
3.798359
 20
2.050695
 30
0.0
 10
3.833873
 20
2.070221
 30
0.0
 10
3.869142
 20
2.090195
 30
0.0
 10
3.904163
 20
2.110612
 30
0.0
 10
3.938931
 20
2.131462
 30
0.0
 10
3.973444
 20
2.152742
 30
0.0
 10
4.007698
 20
2.174446
 30
0.0
 10
4.041688
 20
2.196566
 30
0.0
 10
4.075412
 20
2.219096
 30
0.0
 10
4.108866
 20
2.242028
 30
0.0
 10
4.142044
 20
2.265357
 30
0.0
 10
4.204547
 20
2.311714
 30
0.0
 10
4.237167
 20
2.335818
 30
0.0
 10
4.237167
 20
2.335818
 30
0.0
 10
4.234770
 20
2.339044
 30
0.0
 10
4.234770
 20
2.339044
 30
0.0
 10
4.213009
 20
2.367805
 30
0.0
 10
4.191023
 20
2.396231
 30
0.0
 10
4.191023
 20
2.396231
 30
0.0
 10
4.233705
 20
2.428670
 30
0.0
 10
4.248006
 20
2.439132
 30
0.0
 10
4.260037
 20
2.450235
 30
0.0
 10
4.301136
 20
2.484604
 30
0.0
 10
4.301136
 20
2.484604
 30
0.0
 10
4.323175
 20
2.456155
 30
0.0
 10
4.344996
 20
2.427400
 30
0.0
 10
4.347404
 20
2.424171
 30
0.0
 10
4.347404
 20
2.424171
 30
0.0
 10
4.376086
 20
2.448738
 30
0.0
 10
4.404509
 20
2.473607
 30
0.0
 10
4.432672
 20
2.498772
 30
0.0
 10
4.488435
 20
2.546866
 30
0.0
 10
4.516075
 20
2.572613
 30
0.0
 10
4.543454
 20
2.598647
 30
0.0
 10
4.570568
 20
2.624966
 30
0.0
 10
4.597419
 20
2.651568
 30
0.0
 10
4.624005
 20
2.678444
 30
0.0
 10
4.650325
 20
2.705599
 30
0.0
 10
4.676378
 20
2.733025
 30
0.0
 10
4.702161
 20
2.760720
 30
0.0
 10
4.727677
 20
2.788681
 30
0.0
 10
4.752921
 20
2.816908
 30
0.0
 10
4.777897
 20
2.845394
 30
0.0
 10
4.802599
 20
2.874137
 30
0.0
 10
4.802599
 20
2.874137
 30
0.0
 10
4.831283
 20
2.841322
 30
0.0
 10
4.859599
 20
2.808177
 30
0.0
 10
4.859599
 20
2.808177
 30
0.0
 10
4.886755
 20
2.775674
 30
0.0
 10
4.913565
 20
2.742875
 30
0.0
 10
4.940025
 20
2.709786
 30
0.0
 10
4.966134
 20
2.676411
 30
0.0
 10
4.991889
 20
2.642758
 30
0.0
 10
5.017292
 20
2.608831
 30
0.0
 10
5.042341
 20
2.574639
 30
0.0
 10
5.067037
 20
2.540186
 30
0.0
 10
5.091378
 20
2.505475
 30
0.0
 10
5.115362
 20
2.470515
 30
0.0
 10
5.138990
 20
2.435310
 30
0.0
 10
5.162259
 20
2.399865
 30
0.0
 10
5.204872
 20
2.329712
 30
0.0
 10
5.227426
 20
2.293806
 30
0.0
 10
5.249620
 20
2.257679
 30
0.0
 10
5.271454
 20
2.221336
 30
0.0
 10
5.271454
 20
2.221336
 30
0.0
 10
5.274938
 20
2.215456
 30
0.0
 10
5.274938
 20
2.215456
 30
0.0
 10
5.299255
 20
2.239603
 30
0.0
 10
5.323445
 20
2.264012
 30
0.0
 10
5.323445
 20
2.264012
 30
0.0
 10
5.351084
 20
2.217061
 30
0.0
 10
5.358428
 20
2.204263
 30
0.0
 10
5.371330
 20
2.181309
 30
0.0
 10
5.397180
 20
2.133425
 30
0.0
 10
5.397180
 20
2.133425
 30
0.0
 10
5.372427
 20
2.109096
 30
0.0
 10
5.347550
 20
2.085021
 30
0.0
 10
5.347550
 20
2.085021
 30
0.0
 10
5.365834
 20
2.049900
 30
0.0
 10
5.397346
 20
1.989997
 30
0.0
 10
5.414999
 20
1.954560
 30
0.0
 10
5.432334
 20
1.918966
 30
0.0
 10
5.449356
 20
1.883218
 30
0.0
 10
5.466063
 20
1.847316
 30
0.0
 10
5.482458
 20
1.811262
 30
0.0
 10
5.498540
 20
1.775058
 30
0.0
 10
5.514310
 20
1.738703
 30
0.0
 10
5.529767
 20
1.702201
 30
0.0
 10
5.544913
 20
1.665552
 30
0.0
 10
5.559749
 20
1.628759
 30
0.0
 10
5.574274
 20
1.591823
 30
0.0
 10
5.588489
 20
1.554747
 30
0.0
 10
5.602394
 20
1.517528
 30
0.0
 10
5.615994
 20
1.480171
 30
0.0
 10
5.615994
 20
1.480171
 30
0.0
 10
5.630011
 20
1.440596
 30
0.0
 10
5.643691
 20
1.400870
 30
0.0
 10
5.643691
 20
1.400870
 30
0.0
 10
5.608407
 20
1.372624
 30
0.0
 10
5.572884
 20
1.344740
 30
0.0
 10
5.537117
 20
1.317219
 30
0.0
 10
5.501111
 20
1.290060
 30
0.0
 10
5.464867
 20
1.263267
 30
0.0
 10
5.428382
 20
1.236845
 30
0.0
 10
5.391661
 20
1.210796
 30
0.0
 10
5.354703
 20
1.185116
 30
0.0
 10
5.317505
 20
1.159813
 30
0.0
 10
5.280070
 20
1.134889
 30
0.0
 10
5.242400
 20
1.110345
 30
0.0
 10
5.204492
 20
1.086182
 30
0.0
 10
5.166348
 20
1.062405
 30
0.0
 10
5.095955
 20
1.021775
 30
0.0
 10
5.057339
 20
0.998775
 30
0.0
 10
5.018485
 20
0.976164
 30
0.0
 10
5.018485
 20
0.976164
 30
0.0
 10
5.026636
 20
0.942522
 30
0.0
 10
5.034550
 20
0.908731
 30
0.0
 10
5.034550
 20
0.908731
 30
0.0
 10
4.986064
 20
0.881532
 30
0.0
 10
4.961849
 20
0.867244
 30
0.0
 10
4.944668
 20
0.858487
 30
0.0
 10
4.895141
 20
0.833116
 30
0.0
 10
4.895141
 20
0.833116
 30
0.0
 10
4.887754
 20
0.866667
 30
0.0
 10
4.880125
 20
0.900063
 30
0.0
 10
4.880125
 20
0.900063
 30
0.0
 10
4.837362
 20
0.878589
 30
0.0
 10
4.794358
 20
0.857595
 30
0.0
 10
4.751119
 20
0.837086
 30
0.0
 10
4.683026
 20
0.804758
 30
0.0
 10
4.639333
 20
0.785238
 30
0.0
 10
4.595420
 20
0.766226
 30
0.0
 10
4.551293
 20
0.747722
 30
0.0
 10
4.506956
 20
0.729734
 30
0.0
 10
4.462419
 20
0.712271
 30
0.0
 10
4.417683
 20
0.695337
 30
0.0
 10
4.372753
 20
0.678937
 30
0.0
 10
4.327638
 20
0.663082
 30
0.0
 10
4.282340
 20
0.647774
 30
0.0
 10
4.236866
 20
0.633020
 30
0.0
 10
4.191221
 20
0.618826
 30
0.0
 10
4.145411
 20
0.605198
 30
0.0
 10
4.145411
 20
0.605198
 30
0.0
 10
4.139610
 20
0.644565
 30
0.0
 10
4.133402
 20
0.683852
 30
0.0
 10
4.133402
 20
0.683852
 30
0.0
 10
4.127981
 20
0.716169
 30
0.0
 10
4.122284
 20
0.748423
 30
0.0
 10
4.116313
 20
0.780618
 30
0.0
 10
4.110063
 20
0.812752
 30
0.0
 10
4.103537
 20
0.844819
 30
0.0
 10
4.096731
 20
0.876821
 30
0.0
 10
4.089647
 20
0.908753
 30
0.0
 10
4.082282
 20
0.940617
 30
0.0
 10
4.074639
 20
0.972406
 30
0.0
 10
4.066713
 20
1.004123
 30
0.0
 10
4.058508
 20
1.035763
 30
0.0
 10
4.050022
 20
1.067326
 30
0.0
 10
4.041254
 20
1.098808
 30
0.0
 10
4.021755
 20
1.166771
 30
0.0
 10
4.012420
 20
1.198085
 30
0.0
 10
4.002802
 20
1.229315
 30
0.0
 10
4.002802
 20
1.229315
 30
0.0
 10
3.967111
 20
1.215937
 30
0.0
 10
3.931399
 20
1.202981
 30
0.0
 10
3.931399
 20
1.202981
 30
0.0
 10
3.915226
 20
1.253485
 30
0.0
 10
3.908863
 20
1.266810
 30
0.0
 10
3.891424
 20
1.316086
 30
0.0
 10
3.889039
 20
1.321212
 30
0.0
 10
3.889039
 20
1.321212
 30
0.0
 10
3.924688
 20
1.334183
 30
0.0
  0
LWPOLYLINE
  5
102
100
AcDbEntity
  8
0
 62
7
100
AcDbPolyline
 90
200
 70
1
 10
1.938182
 20
9.131634
 30
0.0
 10
1.938182
 20
9.131634
 30
0.0
 10
1.947145
 20
9.095198
 30
0.0
 10
1.955843
 20
9.058785
 30
0.0
 10
1.955843
 20
9.058785
 30
0.0
 10
2.031215
 20
9.040180
 30
0.0
 10
2.076874
 20
9.028148
 30
0.0
 10
2.122423
 20
9.015726
 30
0.0
 10
2.167860
 20
9.002913
 30
0.0
 10
2.213184
 20
8.989716
 30
0.0
 10
2.258396
 20
8.976132
 30
0.0
 10
2.303492
 20
8.962164
 30
0.0
 10
2.348475
 20
8.947813
 30
0.0
 10
2.393344
 20
8.933082
 30
0.0
 10
2.438098
 20
8.917971
 30
0.0
 10
2.482736
 20
8.902483
 30
0.0
 10
2.527259
 20
8.886619
 30
0.0
 10
2.571664
 20
8.870383
 30
0.0
 10
2.615952
 20
8.853774
 30
0.0
 10
2.660118
 20
8.836794
 30
0.0
 10
2.704166
 20
8.819445
 30
0.0
 10
2.704166
 20
8.819445
 30
0.0
 10
2.746654
 20
8.802318
 30
0.0
 10
2.789030
 20
8.784849
 30
0.0
 10
2.789030
 20
8.784849
 30
0.0
 10
2.796142
 20
8.732061
 30
0.0
 10
2.802768
 20
8.679244
 30
0.0
 10
2.808907
 20
8.626399
 30
0.0
 10
2.814556
 20
8.573528
 30
0.0
 10
2.819712
 20
8.520632
 30
0.0
 10
2.824374
 20
8.467712
 30
0.0
 10
2.828542
 20
8.414771
 30
0.0
 10
2.832209
 20
8.361808
 30
0.0
 10
2.835379
 20
8.308826
 30
0.0
 10
2.838047
 20
8.255827
 30
0.0
 10
2.840208
 20
8.202810
 30
0.0
 10
2.841862
 20
8.149778
 30
0.0
 10
2.843009
 20
8.096733
 30
0.0
 10
2.843647
 20
8.043676
 30
0.0
 10
2.842902
 20
7.961877
 30
0.0
 10
2.842511
 20
7.908799
 30
0.0
 10
2.842511
 20
7.908799
 30
0.0
 10
2.849439
 20
7.905119
 30
0.0
 10
2.849439
 20
7.905119
 30
0.0
 10
2.908481
 20
7.873227
 30
0.0
 10
2.908481
 20
7.873227
 30
0.0
 10
2.907040
 20
7.813199
 30
0.0
 10
2.905815
 20
7.781894
 30
0.0
 10
2.904899
 20
7.747101
 30
0.0
 10
2.901474
 20
7.687093
 30
0.0
 10
2.901474
 20
7.687093
 30
0.0
 10
2.843791
 20
7.719739
 30
0.0
 10
2.843791
 20
7.719739
 30
0.0
 10
2.837021
 20
7.723508
 30
0.0
 10
2.837021
 20
7.723508
 30
0.0
 10
2.833544
 20
7.667285
 30
0.0
 10
2.827625
 20
7.585859
 30
0.0
 10
2.822957
 20
7.529718
 30
0.0
 10
2.817688
 20
7.473630
 30
0.0
 10
2.811820
 20
7.417604
 30
0.0
 10
2.805346
 20
7.361646
 30
0.0
 10
2.798268
 20
7.305766
 30
0.0
 10
2.790579
 20
7.249969
 30
0.0
 10
2.782280
 20
7.194265
 30
0.0
 10
2.773368
 20
7.138661
 30
0.0
 10
2.763840
 20
7.083165
 30
0.0
 10
2.753694
 20
7.027785
 30
0.0
 10
2.742926
 20
6.972528
 30
0.0
 10
2.731535
 20
6.917402
 30
0.0
 10
2.719521
 20
6.862417
 30
0.0
 10
2.706877
 20
6.807578
 30
0.0
 10
2.706877
 20
6.807578
 30
0.0
 10
2.671969
 20
6.831585
 30
0.0
 10
2.636874
 20
6.855266
 30
0.0
 10
2.636874
 20
6.855266
 30
0.0
 10
2.603155
 20
6.877603
 30
0.0
 10
2.569268
 20
6.899642
 30
0.0
 10
2.535214
 20
6.921382
 30
0.0
 10
2.500991
 20
6.942825
 30
0.0
 10
2.466602
 20
6.963966
 30
0.0
 10
2.432047
 20
6.984801
 30
0.0
 10
2.397327
 20
7.005332
 30
0.0
 10
2.362445
 20
7.025558
 30
0.0
 10
2.327397
 20
7.045480
 30
0.0
 10
2.292186
 20
7.065092
 30
0.0
 10
2.256811
 20
7.084392
 30
0.0
 10
2.221274
 20
7.103380
 30
0.0
 10
2.185574
 20
7.122055
 30
0.0
 10
2.149712
 20
7.140414
 30
0.0
 10
2.113689
 20
7.158458
 30
0.0
 10
2.051653
 20
7.188495
 30
0.0
 10
2.051653
 20
7.188495
 30
0.0
 10
2.045702
 20
7.149111
 30
0.0
 10
2.039429
 20
7.109893
 30
0.0
 10
2.039429
 20
7.109893
 30
0.0
 10
2.015834
 20
7.121480
 30
0.0
 10
1.966366
 20
7.144638
 30
0.0
 10
1.916886
 20
7.167061
 30
0.0
 10
1.884027
 20
7.180750
 30
0.0
 10
1.884027
 20
7.180750
 30
0.0
 10
1.889715
 20
7.219641
 30
0.0
 10
1.895070
 20
7.258707
 30
0.0
 10
1.895070
 20
7.258707
 30
0.0
 10
1.888734
 20
7.261396
 30
0.0
 10
1.888734
 20
7.261396
 30
0.0
 10
1.848900
 20
7.278042
 30
0.0
 10
1.792281
 20
7.302302
 30
0.0
 10
1.752125
 20
7.318163
 30
0.0
 10
1.711814
 20
7.333626
 30
0.0
 10
1.671351
 20
7.348688
 30
0.0
 10
1.630743
 20
7.363343
 30
0.0
 10
1.589991
 20
7.377587
 30
0.0
 10
1.549096
 20
7.391417
 30
0.0
 10
1.508069
 20
7.404828
 30
0.0
 10
1.466910
 20
7.417817
 30
0.0
 10
1.425624
 20
7.430381
 30
0.0
 10
1.384212
 20
7.442517
 30
0.0
 10
1.342681
 20
7.454219
 30
0.0
 10
1.301033
 20
7.465480
 30
0.0
 10
1.259272
 20
7.476301
 30
0.0
 10
1.217404
 20
7.486676
 30
0.0
 10
1.217404
 20
7.486676
 30
0.0
 10
1.174752
 20
7.496759
 30
0.0
 10
1.131997
 20
7.506374
 30
0.0
 10
1.131997
 20
7.506374
 30
0.0
 10
1.133682
 20
7.554947
 30
0.0
 10
1.134782
 20
7.603543
 30
0.0
 10
1.135296
 20
7.652155
 30
0.0
 10
1.135225
 20
7.700774
 30
0.0
 10
1.134581
 20
7.749397
 30
0.0
 10
1.133361
 20
7.798013
 30
0.0
 10
1.131573
 20
7.846618
 30
0.0
 10
1.129219
 20
7.895203
 30
0.0
 10
1.126304
 20
7.943763
 30
0.0
 10
1.122832
 20
7.992290
 30
0.0
 10
1.118810
 20
8.040779
 30
0.0
 10
1.114235
 20
8.089220
 30
0.0
 10
1.109117
 20
8.137609
 30
0.0
 10
1.103457
 20
8.185938
 30
0.0
 10
1.092334
 20
8.260055
 30
0.0
 10
1.085606
 20
8.308243
 30
0.0
 10
1.081459
 20
8.308780
 30
0.0
 10
1.081459
 20
8.308780
 30
0.0
 10
1.044405
 20
8.313247
 30
0.0
 10
1.007428
 20
8.317383
 30
0.0
 10
1.007428
 20
8.317383
 30
0.0
 10
0.998818
 20
8.372389
 30
0.0
 10
0.994439
 20
8.401402
 30
0.0
 10
0.988755
 20
8.436434
 30
0.0
 10
0.978078
 20
8.491024
 30
0.0
 10
0.978078
 20
8.491024
 30
0.0
 10
1.015506
 20
8.487356
 30
0.0
 10
1.053003
 20
8.483366
 30
0.0
 10
1.057209
 20
8.482890
 30
0.0
 10
1.057209
 20
8.482890
 30
0.0
 10
1.048167
 20
8.525835
 30
0.0
 10
1.034369
 20
8.592077
 30
0.0
 10
1.024435
 20
8.636676
 30
0.0
 10
1.014056
 20
8.681176
 30
0.0
 10
1.003236
 20
8.725576
 30
0.0
 10
0.991977
 20
8.769876
 30
0.0
 10
0.980278
 20
8.814072
 30
0.0
 10
0.968126
 20
8.858158
 30
0.0
 10
0.955564
 20
8.902148
 30
0.0
 10
0.942558
 20
8.946027
 30
0.0
 10
0.929144
 20
8.989806
 30
0.0
 10
0.915287
 20
9.033470
 30
0.0
 10
0.900987
 20
9.077017
 30
0.0
 10
0.886280
 20
9.120459
 30
0.0
 10
0.871146
 20
9.163785
 30
0.0
 10
0.855592
 20
9.206997
 30
0.0
 10
0.855592
 20
9.206997
 30
0.0
 10
0.901937
 20
9.205658
 30
0.0
 10
0.948267
 20
9.203882
 30
0.0
 10
0.948267
 20
9.203882
 30
0.0
 10
0.998699
 20
9.201452
 30
0.0
 10
1.049109
 20
9.198510
 30
0.0
 10
1.099491
 20
9.195057
 30
0.0
 10
1.149841
 20
9.191097
 30
0.0
 10
1.200155
 20
9.186631
 30
0.0
 10
1.250425
 20
9.181666
 30
0.0
 10
1.300648
 20
9.176203
 30
0.0
 10
1.350818
 20
9.170246
 30
0.0
 10
1.400932
 20
9.163796
 30
0.0
 10
1.450982
 20
9.156859
 30
0.0
 10
1.500965
 20
9.149434
 30
0.0
 10
1.550876
 20
9.141528
 30
0.0
 10
1.600709
 20
9.133142
 30
0.0
 10
1.650459
 20
9.124282
 30
0.0
 10
1.730593
 20
9.107982
 30
0.0
 10
1.780163
 20
9.098178
 30
0.0
 10
1.780163
 20
9.098178
 30
0.0
 10
1.787386
 20
9.096710
 30
0.0
 10
1.787386
 20
9.096710
 30
0.0
 10
1.778112
 20
9.132514
 30
0.0
 10
1.768549
 20
9.168332
 30
0.0
 10
1.768549
 20
9.168332
 30
0.0
 10
1.795739
 20
9.163562
 30
0.0
 10
1.853246
 20
9.151209
 30
0.0
 10
1.910591
 20
9.138246
 30
0.0
  0
LWPOLYLINE
  5
103
100
AcDbEntity
  8
0
 62
7
100
AcDbPolyline
 90
203
 70
1
 10
4.344309
 20
6.044906
 30
0.0
 10
4.344309
 20
6.044906
 30
0.0
 10
4.337902
 20
6.048683
 30
0.0
 10
4.337902
 20
6.048683
 30
0.0
 10
4.280634
 20
6.083079
 30
0.0
 10
4.236052
 20
6.108440
 30
0.0
 10
4.191230
 20
6.133380
 30
0.0
 10
4.146174
 20
6.157891
 30
0.0
 10
4.100887
 20
6.181973
 30
0.0
 10
4.055372
 20
6.205619
 30
0.0
 10
4.009632
 20
6.228824
 30
0.0
 10
3.963674
 20
6.251585
 30
0.0
 10
3.917499
 20
6.273898
 30
0.0
 10
3.871111
 20
6.295755
 30
0.0
 10
3.824515
 20
6.317153
 30
0.0
 10
3.777713
 20
6.338088
 30
0.0
 10
3.730710
 20
6.358556
 30
0.0
 10
3.683510
 20
6.378553
 30
0.0
 10
3.636116
 20
6.398072
 30
0.0
 10
3.588532
 20
6.417108
 30
0.0
 10
3.588532
 20
6.417108
 30
0.0
 10
3.544957
 20
6.434053
 30
0.0
 10
3.501227
 20
6.450591
 30
0.0
 10
3.501227
 20
6.450591
 30
0.0
 10
3.499203
 20
6.497300
 30
0.0
 10
3.496762
 20
6.543991
 30
0.0
 10
3.496762
 20
6.543991
 30
0.0
 10
3.493608
 20
6.595145
 30
0.0
 10
3.489918
 20
6.646268
 30
0.0
 10
3.485715
 20
6.697357
 30
0.0
 10
3.481003
 20
6.748406
 30
0.0
 10
3.475782
 20
6.799410
 30
0.0
 10
3.470058
 20
6.850365
 30
0.0
 10
3.463833
 20
6.901264
 30
0.0
 10
3.457110
 20
6.952105
 30
0.0
 10
3.449893
 20
7.002881
 30
0.0
 10
3.442186
 20
7.053587
 30
0.0
 10
3.433987
 20
7.104218
 30
0.0
 10
3.425307
 20
7.154770
 30
0.0
 10
3.416143
 20
7.205238
 30
0.0
 10
3.406500
 20
7.255615
 30
0.0
 10
3.387676
 20
7.341594
 30
0.0
 10
3.377086
 20
7.391778
 30
0.0
 10
3.372703
 20
7.392928
 30
0.0
 10
3.372703
 20
7.392928
 30
0.0
 10
3.333681
 20
7.402942
 30
0.0
 10
3.294688
 20
7.412641
 30
0.0
 10
3.294688
 20
7.412641
 30
0.0
 10
3.289962
 20
7.435575
 30
0.0
 10
3.275891
 20
7.494027
 30
0.0
 10
3.268145
 20
7.529662
 30
0.0
 10
3.252804
 20
7.587750
 30
0.0
 10
3.252804
 20
7.587750
 30
0.0
 10
3.292470
 20
7.578722
 30
0.0
 10
3.332166
 20
7.569383
 30
0.0
 10
3.336625
 20
7.568309
 30
0.0
 10
3.336625
 20
7.568309
 30
0.0
 10
3.322741
 20
7.620256
 30
0.0
 10
3.301393
 20
7.694695
 30
0.0
 10
3.286517
 20
7.746353
 30
0.0
 10
3.271149
 20
7.797867
 30
0.0
 10
3.255291
 20
7.849234
 30
0.0
 10
3.238946
 20
7.900455
 30
0.0
 10
3.222115
 20
7.951528
 30
0.0
 10
3.204800
 20
8.002453
 30
0.0
 10
3.187003
 20
8.053229
 30
0.0
 10
3.168726
 20
8.103855
 30
0.0
 10
3.149974
 20
8.154331
 30
0.0
 10
3.130742
 20
8.204656
 30
0.0
 10
3.111039
 20
8.254829
 30
0.0
 10
3.090865
 20
8.304850
 30
0.0
 10
3.070219
 20
8.354717
 30
0.0
 10
3.049105
 20
8.404430
 30
0.0
 10
3.049105
 20
8.404430
 30
0.0
 10
3.099090
 20
8.397082
 30
0.0
 10
3.149014
 20
8.389313
 30
0.0
 10
3.149014
 20
8.389313
 30
0.0
 10
3.207037
 20
8.379746
 30
0.0
 10
3.264969
 20
8.369618
 30
0.0
 10
3.322804
 20
8.358927
 30
0.0
 10
3.380538
 20
8.347681
 30
0.0
 10
3.438166
 20
8.335885
 30
0.0
 10
3.495682
 20
8.323541
 30
0.0
 10
3.553083
 20
8.310651
 30
0.0
 10
3.610363
 20
8.297221
 30
0.0
 10
3.667518
 20
8.283252
 30
0.0
 10
3.724542
 20
8.268748
 30
0.0
 10
3.781430
 20
8.253711
 30
0.0
 10
3.838178
 20
8.238151
 30
0.0
 10
3.894781
 20
8.222062
 30
0.0
 10
3.951234
 20
8.205453
 30
0.0
 10
4.038874
 20
8.179623
 30
0.0
 10
4.095013
 20
8.161985
 30
0.0
 10
4.095013
 20
8.161985
 30
0.0
 10
4.102703
 20
8.159536
 30
0.0
 10
4.102703
 20
8.159536
 30
0.0
 10
4.090716
 20
8.198251
 30
0.0
 10
4.078463
 20
8.236971
 30
0.0
 10
4.078463
 20
8.236971
 30
0.0
 10
4.108525
 20
8.226141
 30
0.0
 10
4.169713
 20
8.206010
 30
0.0
 10
4.199331
 20
8.197476
 30
0.0
 10
4.260063
 20
8.176168
 30
0.0
 10
4.260063
 20
8.176168
 30
0.0
 10
4.271566
 20
8.136715
 30
0.0
 10
4.282802
 20
8.097273
 30
0.0
 10
4.282802
 20
8.097273
 30
0.0
 10
4.334330
 20
8.078239
 30
0.0
 10
4.417026
 20
8.046590
 30
0.0
 10
4.468206
 20
8.026706
 30
0.0
 10
4.519210
 20
8.006400
 30
0.0
 10
4.570037
 20
7.985677
 30
0.0
 10
4.620687
 20
7.964536
 30
0.0
 10
4.671159
 20
7.942981
 30
0.0
 10
4.721452
 20
7.921016
 30
0.0
 10
4.771564
 20
7.898641
 30
0.0
 10
4.821495
 20
7.875859
 30
0.0
 10
4.871244
 20
7.852672
 30
0.0
 10
4.920809
 20
7.829082
 30
0.0
 10
4.970191
 20
7.805093
 30
0.0
 10
5.019388
 20
7.780710
 30
0.0
 10
5.068399
 20
7.755932
 30
0.0
 10
5.117223
 20
7.730759
 30
0.0
 10
5.117223
 20
7.730759
 30
0.0
 10
5.161835
 20
7.707332
 30
0.0
 10
5.206288
 20
7.683575
 30
0.0
 10
5.206288
 20
7.683575
 30
0.0
 10
5.216759
 20
7.623063
 30
0.0
 10
5.226698
 20
7.562479
 30
0.0
 10
5.236098
 20
7.501826
 30
0.0
 10
5.244957
 20
7.441106
 30
0.0
 10
5.253277
 20
7.380321
 30
0.0
 10
5.261049
 20
7.319474
 30
0.0
 10
5.268274
 20
7.258567
 30
0.0
 10
5.274948
 20
7.197602
 30
0.0
 10
5.281067
 20
7.136582
 30
0.0
 10
5.286631
 20
7.075508
 30
0.0
 10
5.291636
 20
7.014383
 30
0.0
 10
5.296078
 20
6.953210
 30
0.0
 10
5.299958
 20
6.891991
 30
0.0
 10
5.303279
 20
6.830727
 30
0.0
 10
5.306030
 20
6.731550
 30
0.0
 10
5.308211
 20
6.670205
 30
0.0
 10
5.308211
 20
6.670205
 30
0.0
 10
5.315314
 20
6.665408
 30
0.0
 10
5.315314
 20
6.665408
 30
0.0
 10
5.375991
 20
6.623883
 30
0.0
 10
5.375991
 20
6.623883
 30
0.0
 10
5.377212
 20
6.558126
 30
0.0
 10
5.377748
 20
6.530204
 30
0.0
 10
5.376767
 20
6.487454
 30
0.0
 10
5.375973
 20
6.421631
 30
0.0
 10
5.375973
 20
6.421631
 30
0.0
 10
5.316996
 20
6.464036
 30
0.0
 10
5.316996
 20
6.464036
 30
0.0
 10
5.310086
 20
6.468938
 30
0.0
 10
5.310086
 20
6.468938
 30
0.0
 10
5.309142
 20
6.403781
 30
0.0
 10
5.308385
 20
6.315565
 30
0.0
 10
5.306110
 20
6.250440
 30
0.0
 10
5.303152
 20
6.185342
 30
0.0
 10
5.299548
 20
6.120280
 30
0.0
 10
5.295268
 20
6.055261
 30
0.0
 10
5.290315
 20
5.990292
 30
0.0
 10
5.284689
 20
5.925382
 30
0.0
 10
5.278383
 20
5.860539
 30
0.0
 10
5.271401
 20
5.795770
 30
0.0
 10
5.263735
 20
5.731083
 30
0.0
 10
5.255386
 20
5.666485
 30
0.0
 10
5.246348
 20
5.601985
 30
0.0
 10
5.236623
 20
5.537591
 30
0.0
 10
5.226207
 20
5.473309
 30
0.0
 10
5.215095
 20
5.409148
 30
0.0
 10
5.215095
 20
5.409148
 30
0.0
 10
5.180355
 20
5.439671
 30
0.0
 10
5.145402
 20
5.469905
 30
0.0
 10
5.145402
 20
5.469905
 30
0.0
 10
5.108829
 20
5.501037
 30
0.0
 10
5.072022
 20
5.531853
 30
0.0
 10
5.034983
 20
5.562351
 30
0.0
 10
4.997712
 20
5.592526
 30
0.0
 10
4.960208
 20
5.622382
 30
0.0
 10
4.922472
 20
5.651916
 30
0.0
 10
4.884505
 20
5.681123
 30
0.0
 10
4.846306
 20
5.710009
 30
0.0
 10
4.807876
 20
5.738563
 30
0.0
 10
4.769215
 20
5.766792
 30
0.0
 10
4.730321
 20
5.794691
 30
0.0
 10
4.691196
 20
5.822255
 30
0.0
 10
4.651840
 20
5.849486
 30
0.0
 10
4.612252
 20
5.876383
 30
0.0
 10
4.556427
 20
5.912178
 30
0.0
 10
4.516377
 20
5.938403
 30
0.0
 10
4.516377
 20
5.938403
 30
0.0
 10
4.512633
 20
5.895482
 30
0.0
 10
4.508565
 20
5.852702
 30
0.0
 10
4.508565
 20
5.852702
 30
0.0
 10
4.475297
 20
5.875567
 30
0.0
 10
4.425667
 20
5.907146
 30
0.0
 10
4.375682
 20
5.938201
 30
0.0
 10
4.338272
 20
5.960107
 30
0.0
 10
4.338272
 20
5.960107
 30
0.0
 10
4.341483
 20
6.002443
 30
0.0
  0
SPLINE
  5
104
100
AcDbEntity
  8
0
 62
7
100
AcDbSpline
 70
8
 71
3
 72
8
 73
4
 74
0
 40
0
 40
0
 40
0
 40
0
 40
1
 40
1
 40
1
 40
1
 10
3.325607
 20
1.724070
 30
0.0
 10
3.325916
 20
1.736520
 30
0.0
 10
3.326227
 20
1.725955
 30
0.0
 10
3.326536
 20
1.761493
 30
0.0
  0
LWPOLYLINE
  5
105
100
AcDbEntity
  8
0
 62
7
100
AcDbPolyline
 90
155
 70
0
 10
2.193974
 20
3.751994
 30
0.0
 10
2.193974
 20
3.751994
 30
0.0
 10
2.131368
 20
3.784936
 30
0.0
 10
2.098052
 20
3.802499
 30
0.0
 10
2.034833
 20
3.834293
 30
0.0
 10
2.010496
 20
3.847237
 30
0.0
 10
2.010496
 20
3.847237
 30
0.0
 10
2.024405
 20
3.798145
 30
0.0
 10
2.037957
 20
3.749066
 30
0.0
 10
2.037957
 20
3.749066
 30
0.0
 10
2.030000
 20
3.752995
 30
0.0
 10
2.030000
 20
3.752995
 30
0.0
 10
1.969546
 20
3.782600
 30
0.0
 10
1.869649
 20
3.829939
 30
0.0
 10
1.808687
 20
3.858479
 30
0.0
 10
1.747470
 20
3.886467
 30
0.0
 10
1.686005
 20
3.913899
 30
0.0
 10
1.624294
 20
3.940770
 30
0.0
 10
1.562348
 20
3.967086
 30
0.0
 10
1.500169
 20
3.992840
 30
0.0
 10
1.437763
 20
4.018030
 30
0.0
 10
1.375134
 20
4.042653
 30
0.0
 10
1.312274
 20
4.066673
 30
0.0
 10
1.249202
 20
4.090121
 30
0.0
 10
1.185921
 20
4.112990
 30
0.0
 10
1.122433
 20
4.135269
 30
0.0
 10
1.058744
 20
4.156956
 30
0.0
 10
0.994856
 20
4.178045
 30
0.0
 10
0.994856
 20
4.178045
 30
0.0
 10
0.942062
 20
4.194977
 30
0.0
 10
0.889126
 20
4.211503
 30
0.0
 10
0.889126
 20
4.211503
 30
0.0
 10
0.912033
 20
4.153704
 30
0.0
 10
0.934421
 20
4.095736
 30
0.0
 10
0.956286
 20
4.037600
 30
0.0
 10
0.977627
 20
3.979296
 30
0.0
 10
0.998441
 20
3.920827
 30
0.0
 10
1.018725
 20
3.862191
 30
0.0
 10
1.038477
 20
3.803392
 30
0.0
 10
1.057695
 20
3.744430
 30
0.0
 10
1.076375
 20
3.685306
 30
0.0
 10
1.094516
 20
3.626021
 30
0.0
 10
1.112114
 20
3.566576
 30
0.0
 10
1.129168
 20
3.506972
 30
0.0
 10
1.145674
 20
3.447210
 30
0.0
 10
1.161631
 20
3.387292
 30
0.0
 10
1.184871
 20
3.297617
 30
0.0
 10
1.199721
 20
3.237388
 30
0.0
 10
1.195080
 20
3.239340
 30
0.0
 10
1.195080
 20
3.239340
 30
0.0
 10
1.153857
 20
3.256506
 30
0.0
 10
1.112608
 20
3.273353
 30
0.0
 10
1.112608
 20
3.273353
 30
0.0
 10
1.128281
 20
3.209447
 30
0.0
 10
1.135484
 20
3.174965
 30
0.0
 10
1.138566
 20
3.159462
 30
0.0
 10
1.152326
 20
3.095035
 30
0.0
 10
1.152326
 20
3.095035
 30
0.0
 10
1.192684
 20
3.077450
 30
0.0
 10
1.233014
 20
3.059550
 30
0.0
 10
1.237553
 20
3.057515
 30
0.0
 10
1.237553
 20
3.057515
 30
0.0
 10
1.250146
 20
2.992772
 30
0.0
 10
1.273404
 20
2.879150
 30
0.0
 10
1.284688
 20
2.814164
 30
0.0
 10
1.295311
 20
2.749067
 30
0.0
 10
1.305269
 20
2.683867
 30
0.0
 10
1.314558
 20
2.618570
 30
0.0
 10
1.323175
 20
2.553184
 30
0.0
 10
1.331114
 20
2.487716
 30
0.0
 10
1.338372
 20
2.422174
 30
0.0
 10
1.344945
 20
2.356564
 30
0.0
 10
1.350829
 20
2.290893
 30
0.0
 10
1.356020
 20
2.225168
 30
0.0
 10
1.360514
 20
2.159398
 30
0.0
 10
1.364306
 20
2.093589
 30
0.0
 10
1.367393
 20
2.027748
 30
0.0
 10
1.369771
 20
1.961882
 30
0.0
 10
1.369771
 20
1.961882
 30
0.0
 10
1.413600
 20
1.935880
 30
0.0
 10
1.457212
 20
1.909512
 30
0.0
 10
1.457212
 20
1.909512
 30
0.0
 10
1.507889
 20
1.878249
 30
0.0
 10
1.558266
 20
1.846495
 30
0.0
 10
1.608339
 20
1.814255
 30
0.0
 10
1.658106
 20
1.781539
 30
0.0
 10
1.707562
 20
1.748348
 30
0.0
 10
1.756704
 20
1.714685
 30
0.0
 10
1.805531
 20
1.680562
 30
0.0
 10
1.854037
 20
1.645977
 30
0.0
 10
1.902221
 20
1.610939
 30
0.0
 10
1.950077
 20
1.575450
 30
0.0
 10
1.997605
 20
1.539520
 30
0.0
 10
2.044799
 20
1.503150
 30
0.0
 10
2.091659
 20
1.466349
 30
0.0
 10
2.176347
 20
1.397107
 30
0.0
 10
2.222524
 20
1.359454
 30
0.0
 10
2.268356
 20
1.321383
 30
0.0
 10
2.268356
 20
1.321383
 30
0.0
 10
2.274602
 20
1.316163
 30
0.0
 10
2.274602
 20
1.316163
 30
0.0
 10
2.270736
 20
1.269689
 30
0.0
 10
2.266547
 20
1.223357
 30
0.0
 10
2.266547
 20
1.223357
 30
0.0
 10
2.292672
 20
1.200147
 30
0.0
 10
2.302705
 20
1.189725
 30
0.0
 10
2.350809
 20
1.146534
 30
0.0
 10
2.398806
 20
1.102579
 30
0.0
 10
2.398806
 20
1.102579
 30
0.0
 10
2.404112
 20
1.149353
 30
0.0
 10
2.409101
 20
1.196271
 30
0.0
 10
2.409101
 20
1.196271
 30
0.0
 10
2.450031
 20
1.158734
 30
0.0
 10
2.490639
 20
1.120864
 30
0.0
 10
2.553088
 20
1.064199
 30
0.0
 10
2.593053
 20
1.025675
 30
0.0
 10
2.632697
 20
0.986826
 30
0.0
 10
2.672018
 20
0.947653
 30
0.0
 10
2.711018
 20
0.908158
 30
0.0
 10
2.749699
 20
0.868347
 30
0.0
 10
2.788058
 20
0.828219
 30
0.0
 10
2.826097
 20
0.787773
 30
0.0
 10
2.863815
 20
0.747015
 30
0.0
 10
2.901213
 20
0.705945
 30
0.0
 10
2.938290
 20
0.664565
 30
0.0
 10
2.975049
 20
0.622880
 30
0.0
 10
3.011488
 20
0.580889
 30
0.0
 10
3.047608
 20
0.538594
 30
0.0
 10
3.047608
 20
0.538594
 30
0.0
 10
3.080309
 20
0.499711
 30
0.0
 10
3.112745
 20
0.460579
 30
0.0
 10
3.112745
 20
0.460579
 30
0.0
 10
3.127247
 20
0.533353
 30
0.0
 10
3.140994
 20
0.606277
 30
0.0
 10
3.153990
 20
0.679341
 30
0.0
 10
3.166233
 20
0.752539
 30
0.0
 10
3.177726
 20
0.825862
 30
0.0
 10
3.188475
 20
0.899301
 30
0.0
 10
3.198477
 20
0.972850
 30
0.0
 10
3.207736
 20
1.046500
 30
0.0
 10
3.216256
 20
1.120242
 30
0.0
 10
3.224036
 20
1.194069
 30
0.0
 10
3.231078
 20
1.267974
 30
0.0
 10
3.237385
 20
1.341948
 30
0.0
 10
3.242957
 20
1.415984
 30
0.0
 10
3.247798
 20
1.490073
 30
0.0
 10
3.252781
 20
1.599032
 30
0.0
 10
3.256164
 20
1.673204
 30
0.0
 10
3.256164
 20
1.673204
 30
0.0
 10
3.262857
 20
1.666757
 30
0.0
 10
3.262857
 20
1.666757
 30
0.0
 10
3.319965
 20
1.610951
 30
0.0
 10
3.319965
 20
1.610951
 30
0.0
 10
3.323126
 20
1.683169
 30
0.0
 10
3.325607
 20
1.724070
 30
0.0
  0
LWPOLYLINE
  5
106
100
AcDbEntity
  8
0
 62
7
100
AcDbPolyline
 90
46
 70
0
 10
3.326536
 20
1.761493
 30
0.0
 10
3.327656
 20
1.833730
 30
0.0
 10
3.327656
 20
1.833730
 30
0.0
 10
3.268494
 20
1.888700
 30
0.0
 10
3.268494
 20
1.888700
 30
0.0
 10
3.261562
 20
1.895044
 30
0.0
 10
3.261562
 20
1.895044
 30
0.0
 10
3.261450
 20
1.964846
 30
0.0
 10
3.260703
 20
2.065968
 30
0.0
 10
3.259324
 20
2.135724
 30
0.0
 10
3.257319
 20
2.205448
 30
0.0
 10
3.254688
 20
2.275139
 30
0.0
 10
3.251439
 20
2.344790
 30
0.0
 10
3.247572
 20
2.414399
 30
0.0
 10
3.243088
 20
2.483961
 30
0.0
 10
3.237995
 20
2.553472
 30
0.0
 10
3.232294
 20
2.622928
 30
0.0
 10
3.225987
 20
2.692323
 30
0.0
 10
3.219079
 20
2.761656
 30
0.0
 10
3.211573
 20
2.830920
 30
0.0
 10
3.203474
 20
2.900112
 30
0.0
 10
3.194782
 20
2.969227
 30
0.0
 10
3.185502
 20
3.038262
 30
0.0
 10
3.185502
 20
3.038262
 30
0.0
 10
3.140900
 20
3.071130
 30
0.0
 10
3.096074
 20
3.103696
 30
0.0
 10
3.096074
 20
3.103696
 30
0.0
 10
3.045189
 20
3.140103
 30
0.0
 10
2.994022
 20
3.176118
 30
0.0
 10
2.942575
 20
3.211740
 30
0.0
 10
2.890849
 20
3.246965
 30
0.0
 10
2.838845
 20
3.281789
 30
0.0
 10
2.786565
 20
3.316206
 30
0.0
 10
2.734012
 20
3.350216
 30
0.0
 10
2.681184
 20
3.383813
 30
0.0
 10
2.628086
 20
3.416995
 30
0.0
 10
2.574716
 20
3.449754
 30
0.0
 10
2.521078
 20
3.482092
 30
0.0
 10
2.467174
 20
3.514006
 30
0.0
 10
2.413005
 20
3.545488
 30
0.0
 10
2.358572
 20
3.576538
 30
0.0
 10
2.274276
 20
3.621952
 30
0.0
 10
2.219318
 20
3.652122
 30
0.0
 10
2.219318
 20
3.652122
 30
0.0
 10
2.206840
 20
3.702072
 30
0.0
 10
2.193974
 20
3.751994
 30
0.0
  0
LWPOLYLINE
  5
107
100
AcDbEntity
  8
0
 62
7
100
AcDbPolyline
 90
202
 70
1
 10
2.161332
 20
6.686884
 30
0.0
 10
2.161332
 20
6.686884
 30
0.0
 10
2.185043
 20
6.638384
 30
0.0
 10
2.208458
 20
6.589831
 30
0.0
 10
2.208458
 20
6.589831
 30
0.0
 10
2.278425
 20
6.554931
 30
0.0
 10
2.392446
 20
6.498554
 30
0.0
 10
2.461870
 20
6.462566
 30
0.0
 10
2.531017
 20
6.426040
 30
0.0
 10
2.599885
 20
6.388982
 30
0.0
 10
2.668469
 20
6.351393
 30
0.0
 10
2.736765
 20
6.313278
 30
0.0
 10
2.804770
 20
6.274642
 30
0.0
 10
2.872480
 20
6.235487
 30
0.0
 10
2.939891
 20
6.195818
 30
0.0
 10
3.007003
 20
6.155640
 30
0.0
 10
3.073809
 20
6.114956
 30
0.0
 10
3.140306
 20
6.073770
 30
0.0
 10
3.206492
 20
6.032086
 30
0.0
 10
3.272362
 20
5.989908
 30
0.0
 10
3.337911
 20
5.947239
 30
0.0
 10
3.337911
 20
5.947239
 30
0.0
 10
3.393123
 20
5.910764
 30
0.0
 10
3.448096
 20
5.873940
 30
0.0
 10
3.448096
 20
5.873940
 30
0.0
 10
3.476361
 20
5.791999
 30
0.0
 10
3.503949
 20
5.709823
 30
0.0
 10
3.530856
 20
5.627416
 30
0.0
 10
3.557079
 20
5.544788
 30
0.0
 10
3.582615
 20
5.461943
 30
0.0
 10
3.607459
 20
5.378888
 30
0.0
 10
3.631606
 20
5.295628
 30
0.0
 10
3.655053
 20
5.212170
 30
0.0
 10
3.677795
 20
5.128518
 30
0.0
 10
3.699829
 20
5.044680
 30
0.0
 10
3.721151
 20
4.960661
 30
0.0
 10
3.741756
 20
4.876468
 30
0.0
 10
3.761642
 20
4.792106
 30
0.0
 10
3.780804
 20
4.707583
 30
0.0
 10
3.799237
 20
4.622902
 30
0.0
 10
3.825555
 20
4.487591
 30
0.0
 10
3.825555
 20
4.487591
 30
0.0
 10
3.834098
 20
4.480309
 30
0.0
 10
3.834098
 20
4.480309
 30
0.0
 10
3.870798
 20
4.448919
 30
0.0
 10
3.907399
 20
4.417311
 30
0.0
 10
3.907399
 20
4.417311
 30
0.0
 10
3.915001
 20
4.382794
 30
0.0
 10
3.930484
 20
4.297665
 30
0.0
 10
3.937390
 20
4.253331
 30
0.0
 10
3.951384
 20
4.167971
 30
0.0
 10
3.951384
 20
4.167971
 30
0.0
 10
3.916000
 20
4.200261
 30
0.0
 10
3.880506
 20
4.232332
 30
0.0
 10
3.880506
 20
4.232332
 30
0.0
 10
3.872232
 20
4.239764
 30
0.0
 10
3.872232
 20
4.239764
 30
0.0
 10
3.887222
 20
4.147969
 30
0.0
 10
3.909175
 20
4.015145
 30
0.0
 10
3.922417
 20
3.923138
 30
0.0
 10
3.934780
 20
3.831032
 30
0.0
 10
3.946262
 20
3.738835
 30
0.0
 10
3.956861
 20
3.646551
 30
0.0
 10
3.966574
 20
3.554186
 30
0.0
 10
3.975399
 20
3.461745
 30
0.0
 10
3.983333
 20
3.369235
 30
0.0
 10
3.990374
 20
3.276661
 30
0.0
 10
3.996519
 20
3.184028
 30
0.0
 10
4.001765
 20
3.091342
 30
0.0
 10
4.006112
 20
2.998608
 30
0.0
 10
4.009554
 20
2.905832
 30
0.0
 10
4.012092
 20
2.813020
 30
0.0
 10
4.013721
 20
2.720177
 30
0.0
 10
4.013721
 20
2.720177
 30
0.0
 10
3.973428
 20
2.766132
 30
0.0
 10
3.932835
 20
2.811831
 30
0.0
 10
3.932835
 20
2.811831
 30
0.0
 10
3.885364
 20
2.864527
 30
0.0
 10
3.837489
 20
2.916869
 30
0.0
 10
3.789211
 20
2.968851
 30
0.0
 10
3.740534
 20
3.020471
 30
0.0
 10
3.691456
 20
3.071722
 30
0.0
 10
3.641981
 20
3.122604
 30
0.0
 10
3.592110
 20
3.173110
 30
0.0
 10
3.541841
 20
3.223235
 30
0.0
 10
3.491177
 20
3.272976
 30
0.0
 10
3.440122
 20
3.322329
 30
0.0
 10
3.388674
 20
3.371289
 30
0.0
 10
3.336835
 20
3.419853
 30
0.0
 10
3.284606
 20
3.468015
 30
0.0
 10
3.231989
 20
3.515771
 30
0.0
 10
3.144508
 20
3.589588
 30
0.0
 10
3.091116
 20
3.636520
 30
0.0
 10
3.091116
 20
3.636520
 30
0.0
 10
3.097761
 20
3.580172
 30
0.0
 10
3.104035
 20
3.523888
 30
0.0
 10
3.104035
 20
3.523888
 30
0.0
 10
3.045397
 20
3.575539
 30
0.0
 10
3.021076
 20
3.599943
 30
0.0
 10
2.962133
 20
3.650047
 30
0.0
 10
2.937523
 20
3.671679
 30
0.0
 10
2.937523
 20
3.671679
 30
0.0
 10
2.929871
 20
3.727217
 30
0.0
 10
2.921848
 20
3.782812
 30
0.0
 10
2.921848
 20
3.782812
 30
0.0
 10
2.914245
 20
3.789000
 30
0.0
 10
2.914245
 20
3.789000
 30
0.0
 10
2.854513
 20
3.836958
 30
0.0
 10
2.759894
 20
3.912098
 30
0.0
 10
2.699340
 20
3.959006
 30
0.0
 10
2.638377
 20
4.005381
 30
0.0
 10
2.577013
 20
4.051219
 30
0.0
 10
2.515251
 20
4.096514
 30
0.0
 10
2.453094
 20
4.141263
 30
0.0
 10
2.390545
 20
4.185457
 30
0.0
 10
2.327610
 20
4.229093
 30
0.0
 10
2.264292
 20
4.272168
 30
0.0
 10
2.200595
 20
4.314676
 30
0.0
 10
2.136524
 20
4.356611
 30
0.0
 10
2.072079
 20
4.397967
 30
0.0
 10
2.007267
 20
4.438741
 30
0.0
 10
1.942092
 20
4.478928
 30
0.0
 10
1.876555
 20
4.518520
 30
0.0
 10
1.876555
 20
4.518520
 30
0.0
 10
1.823828
 20
4.549789
 30
0.0
 10
1.770868
 20
4.580665
 30
0.0
 10
1.770868
 20
4.580665
 30
0.0
 10
1.748217
 20
4.661791
 30
0.0
 10
1.724755
 20
4.742687
 30
0.0
 10
1.700487
 20
4.823346
 30
0.0
 10
1.675417
 20
4.903762
 30
0.0
 10
1.649552
 20
4.983929
 30
0.0
 10
1.622896
 20
5.063839
 30
0.0
 10
1.595454
 20
5.143486
 30
0.0
 10
1.567231
 20
5.222863
 30
0.0
 10
1.538233
 20
5.301964
 30
0.0
 10
1.508465
 20
5.380781
 30
0.0
 10
1.477931
 20
5.459309
 30
0.0
 10
1.446637
 20
5.537541
 30
0.0
 10
1.414589
 20
5.615470
 30
0.0
 10
1.381790
 20
5.693089
 30
0.0
 10
1.348247
 20
5.770391
 30
0.0
 10
1.297959
 20
5.878151
 30
0.0
 10
1.292439
 20
5.880517
 30
0.0
 10
1.292439
 20
5.880517
 30
0.0
 10
1.243505
 20
5.901247
 30
0.0
 10
1.194539
 20
5.921644
 30
0.0
 10
1.194539
 20
5.921644
 30
0.0
 10
1.176941
 20
5.962676
 30
0.0
 10
1.142696
 20
6.034167
 30
0.0
 10
1.126288
 20
6.064701
 30
0.0
 10
1.090781
 20
6.135532
 30
0.0
 10
1.090781
 20
6.135532
 30
0.0
 10
1.140788
 20
6.116244
 30
0.0
 10
1.190766
 20
6.096619
 30
0.0
 10
1.196420
 20
6.094390
 30
0.0
 10
1.196420
 20
6.094390
 30
0.0
 10
1.161090
 20
6.164972
 30
0.0
 10
1.106675
 20
6.275852
 30
0.0
 10
1.070122
 20
6.345770
 30
0.0
 10
1.032964
 20
6.415350
 30
0.0
 10
0.995205
 20
6.484589
 30
0.0
 10
0.956853
 20
6.553485
 30
0.0
 10
0.917913
 20
6.622034
 30
0.0
 10
0.878389
 20
6.690234
 30
0.0
 10
0.838287
 20
6.758081
 30
0.0
 10
0.797613
 20
6.825573
 30
0.0
 10
0.756372
 20
6.892707
 30
0.0
 10
0.714569
 20
6.959480
 30
0.0
 10
0.672209
 20
7.025887
 30
0.0
 10
0.629297
 20
7.091927
 30
0.0
 10
0.585836
 20
7.157594
 30
0.0
 10
0.541834
 20
7.222888
 30
0.0
 10
0.541834
 20
7.222888
 30
0.0
 10
0.605897
 20
7.204934
 30
0.0
 10
0.669833
 20
7.186529
 30
0.0
 10
0.669833
 20
7.186529
 30
0.0
 10
0.750874
 20
7.162502
 30
0.0
 10
0.831694
 20
7.137757
 30
0.0
 10
0.912289
 20
7.112298
 30
0.0
 10
0.992656
 20
7.086129
 30
0.0
 10
1.072791
 20
7.059251
 30
0.0
 10
1.152690
 20
7.031668
 30
0.0
 10
1.232349
 20
7.003382
 30
0.0
 10
1.311766
 20
6.974396
 30
0.0
 10
1.390936
 20
6.944713
 30
0.0
 10
1.469856
 20
6.914336
 30
0.0
 10
1.548522
 20
6.883268
 30
0.0
 10
1.626932
 20
6.851511
 30
0.0
 10
1.705080
 20
6.819069
 30
0.0
 10
1.782964
 20
6.785944
 30
0.0
 10
1.902441
 20
6.733670
 30
0.0
 10
1.979785
 20
6.699187
 30
0.0
 10
1.979785
 20
6.699187
 30
0.0
 10
1.989483
 20
6.694806
 30
0.0
 10
1.989483
 20
6.694806
 30
0.0
 10
1.965008
 20
6.742274
 30
0.0
 10
1.940240
 20
6.789682
 30
0.0
 10
1.940240
 20
6.789682
 30
0.0
 10
2.017509
 20
6.755124
 30
0.0
 10
2.052623
 20
6.738373
 30
0.0
 10
2.129302
 20
6.702498
 30
0.0
  0
LWPOLYLINE
  5
108
100
AcDbEntity
  8
0
 62
7
100
AcDbPolyline
 90
224
 70
1
 10
6.287448
 20
1.953177
 30
0.0
 10
6.287448
 20
1.953177
 30
0.0
 10
6.279522
 20
1.960382
 30
0.0
 10
6.279522
 20
1.960382
 30
0.0
 10
6.216159
 20
2.017436
 30
0.0
 10
6.120969
 20
2.102672
 30
0.0
 10
6.056640
 20
2.158623
 30
0.0
 10
5.991834
 20
2.214016
 30
0.0
 10
5.926554
 20
2.268845
 30
0.0
 10
5.860805
 20
2.323105
 30
0.0
 10
5.794590
 20
2.376790
 30
0.0
 10
5.727912
 20
2.429896
 30
0.0
 10
5.660777
 20
2.482418
 30
0.0
 10
5.593187
 20
2.534349
 30
0.0
 10
5.525147
 20
2.585685
 30
0.0
 10
5.456661
 20
2.636421
 30
0.0
 10
5.387731
 20
2.686552
 30
0.0
 10
5.318362
 20
2.736072
 30
0.0
 10
5.248559
 20
2.784976
 30
0.0
 10
5.178324
 20
2.833259
 30
0.0
 10
5.178324
 20
2.833259
 30
0.0
 10
5.122818
 20
2.870771
 30
0.0
 10
5.067051
 20
2.907893
 30
0.0
 10
5.067051
 20
2.907893
 30
0.0
 10
5.053608
 20
2.952724
 30
0.0
 10
5.039947
 20
2.997489
 30
0.0
 10
5.026068
 20
3.042187
 30
0.0
 10
5.011971
 20
3.086816
 30
0.0
 10
4.983127
 20
3.175865
 30
0.0
 10
4.953407
 20
3.264626
 30
0.0
 10
4.922832
 20
3.353097
 30
0.0
 10
4.891396
 20
3.441267
 30
0.0
 10
4.859102
 20
3.529128
 30
0.0
 10
4.825987
 20
3.616686
 30
0.0
 10
4.792023
 20
3.703922
 30
0.0
 10
4.757222
 20
3.790831
 30
0.0
 10
4.721595
 20
3.877407
 30
0.0
 10
4.685143
 20
3.963645
 30
0.0
 10
4.647870
 20
4.049535
 30
0.0
 10
4.609786
 20
4.135072
 30
0.0
 10
4.570892
 20
4.220250
 30
0.0
 10
4.512912
 20
4.343367
 30
0.0
 10
4.507026
 20
4.346286
 30
0.0
 10
4.507026
 20
4.346286
 30
0.0
 10
4.454940
 20
4.371908
 30
0.0
 10
4.402790
 20
4.397184
 30
0.0
 10
4.402790
 20
4.397184
 30
0.0
 10
4.364633
 20
4.474874
 30
0.0
 10
4.344082
 20
4.513922
 30
0.0
 10
4.321119
 20
4.557853
 30
0.0
 10
4.280947
 20
4.634521
 30
0.0
 10
4.280947
 20
4.634521
 30
0.0
 10
4.334269
 20
4.610458
 30
0.0
 10
4.387537
 20
4.586042
 30
0.0
 10
4.393558
 20
4.583260
 30
0.0
 10
4.393558
 20
4.583260
 30
0.0
 10
4.353081
 20
4.660708
 30
0.0
 10
4.295397
 20
4.770882
 30
0.0
 10
4.253593
 20
4.847613
 30
0.0
 10
4.211135
 20
4.923978
 30
0.0
 10
4.168030
 20
4.999975
 30
0.0
 10
4.124282
 20
5.075596
 30
0.0
 10
4.079895
 20
5.150839
 30
0.0
 10
4.034879
 20
5.225699
 30
0.0
 10
3.989236
 20
5.300170
 30
0.0
 10
3.942975
 20
5.374249
 30
0.0
 10
3.896102
 20
5.447931
 30
0.0
 10
3.848618
 20
5.521209
 30
0.0
 10
3.800533
 20
5.594082
 30
0.0
 10
3.751852
 20
5.666544
 30
0.0
 10
3.702581
 20
5.738590
 30
0.0
 10
3.652725
 20
5.810216
 30
0.0
 10
3.652725
 20
5.810216
 30
0.0
 10
3.721349
 20
5.787044
 30
0.0
 10
3.789813
 20
5.763404
 30
0.0
 10
3.789813
 20
5.763404
 30
0.0
 10
3.877751
 20
5.732273
 30
0.0
 10
3.965394
 20
5.700383
 30
0.0
 10
4.052740
 20
5.667733
 30
0.0
 10
4.139788
 20
5.634328
 30
0.0
 10
4.226538
 20
5.600169
 30
0.0
 10
4.312990
 20
5.565256
 30
0.0
 10
4.399141
 20
5.529594
 30
0.0
 10
4.484992
 20
5.493182
 30
0.0
 10
4.570542
 20
5.456022
 30
0.0
 10
4.655789
 20
5.418117
 30
0.0
 10
4.740734
 20
5.379467
 30
0.0
 10
4.825375
 20
5.340076
 30
0.0
 10
4.909711
 20
5.299944
 30
0.0
 10
4.993742
 20
5.259073
 30
0.0
 10
5.103938
 20
5.203308
 30
0.0
 10
5.187356
 20
5.160965
 30
0.0
 10
5.187356
 20
5.160965
 30
0.0
 10
5.197653
 20
5.155678
 30
0.0
 10
5.197653
 20
5.155678
 30
0.0
 10
5.170390
 20
5.206975
 30
0.0
 10
5.142820
 20
5.258199
 30
0.0
 10
5.142820
 20
5.258199
 30
0.0
 10
5.224820
 20
5.216492
 30
0.0
 10
5.280017
 20
5.188258
 30
0.0
 10
5.334866
 20
5.161813
 30
0.0
 10
5.415833
 20
5.118077
 30
0.0
 10
5.415833
 20
5.118077
 30
0.0
 10
5.456863
 20
5.036317
 30
0.0
 10
5.456863
 20
5.036317
 30
0.0
 10
5.468299
 20
5.013232
 30
0.0
 10
5.468299
 20
5.013232
 30
0.0
 10
5.543321
 20
4.971090
 30
0.0
 10
5.644493
 20
4.911751
 30
0.0
 10
5.718867
 20
4.868464
 30
0.0
 10
5.792913
 20
4.824609
 30
0.0
 10
5.866626
 20
4.780192
 30
0.0
 10
5.940003
 20
4.735216
 30
0.0
 10
6.013040
 20
4.689686
 30
0.0
 10
6.085734
 20
4.643605
 30
0.0
 10
6.158081
 20
4.596978
 30
0.0
 10
6.230077
 20
4.549808
 30
0.0
 10
6.301720
 20
4.502101
 30
0.0
 10
6.373005
 20
4.453858
 30
0.0
 10
6.443928
 20
4.405086
 30
0.0
 10
6.514487
 20
4.355787
 30
0.0
 10
6.584678
 20
4.305967
 30
0.0
 10
6.654496
 20
4.255628
 30
0.0
 10
6.654496
 20
4.255628
 30
0.0
 10
6.712438
 20
4.213252
 30
0.0
 10
6.770116
 20
4.170521
 30
0.0
 10
6.770116
 20
4.170521
 30
0.0
 10
6.802042
 20
4.080771
 30
0.0
 10
6.833216
 20
3.990753
 30
0.0
 10
6.863669
 20
3.900488
 30
0.0
 10
6.893367
 20
3.809970
 30
0.0
 10
6.922342
 20
3.719219
 30
0.0
 10
6.950556
 20
3.628228
 30
0.0
 10
6.978005
 20
3.537004
 30
0.0
 10
7.004725
 20
3.445567
 30
0.0
 10
7.030669
 20
3.353908
 30
0.0
 10
7.055850
 20
3.262040
 30
0.0
 10
7.080262
 20
3.169967
 30
0.0
 10
7.103898
 20
3.077695
 30
0.0
 10
7.126761
 20
2.985233
 30
0.0
 10
7.148840
 20
2.892584
 30
0.0
 10
7.170138
 20
2.799756
 30
0.0
 10
7.200498
 20
2.660585
 30
0.0
 10
7.200498
 20
2.660585
 30
0.0
 10
7.209035
 20
2.652562
 30
0.0
 10
7.209381
 20
2.652238
 30
0.0
 10
7.209381
 20
2.652238
 30
0.0
 10
7.247526
 20
2.616183
 30
0.0
 10
7.285547
 20
2.579904
 30
0.0
 10
7.285547
 20
2.579904
 30
0.0
 10
7.294385
 20
2.533879
 30
0.0
 10
7.312298
 20
2.441534
 30
0.0
 10
7.320724
 20
2.393455
 30
0.0
 10
7.337063
 20
2.300889
 30
0.0
 10
7.337063
 20
2.300889
 30
0.0
 10
7.300379
 20
2.337893
 30
0.0
 10
7.263568
 20
2.374677
 30
0.0
 10
7.263568
 20
2.374677
 30
0.0
 10
7.254993
 20
2.383196
 30
0.0
 10
7.254993
 20
2.383196
 30
0.0
 10
7.264015
 20
2.332675
 30
0.0
 10
7.272801
 20
2.282131
 30
0.0
 10
7.290057
 20
2.187162
 30
0.0
 10
7.298366
 20
2.136569
 30
0.0
 10
7.306434
 20
2.085953
 30
0.0
 10
7.314266
 20
2.035314
 30
0.0
 10
7.321857
 20
1.984651
 30
0.0
 10
7.329207
 20
1.933965
 30
0.0
 10
7.336320
 20
1.883258
 30
0.0
 10
7.343193
 20
1.832527
 30
0.0
 10
7.349824
 20
1.781774
 30
0.0
 10
7.356214
 20
1.730998
 30
0.0
 10
7.362363
 20
1.680201
 30
0.0
 10
7.368271
 20
1.629381
 30
0.0
 10
7.373937
 20
1.578541
 30
0.0
 10
7.379362
 20
1.527679
 30
0.0
 10
7.384546
 20
1.476796
 30
0.0
 10
7.389488
 20
1.425892
 30
0.0
 10
7.394188
 20
1.374968
 30
0.0
 10
7.398643
 20
1.324023
 30
0.0
 10
7.402856
 20
1.273057
 30
0.0
 10
7.406827
 20
1.222072
 30
0.0
 10
7.410553
 20
1.171067
 30
0.0
 10
7.414036
 20
1.120042
 30
0.0
 10
7.417274
 20
1.068997
 30
0.0
 10
7.420269
 20
1.017934
 30
0.0
 10
7.423018
 20
0.966850
 30
0.0
 10
7.425525
 20
0.915749
 30
0.0
 10
7.427786
 20
0.864629
 30
0.0
 10
7.429800
 20
0.813491
 30
0.0
 10
7.431568
 20
0.762333
 30
0.0
 10
7.433093
 20
0.711159
 30
0.0
 10
7.433093
 20
0.711159
 30
0.0
 10
7.391900
 20
0.763485
 30
0.0
 10
7.350375
 20
0.815557
 30
0.0
 10
7.350375
 20
0.815557
 30
0.0
 10
7.300847
 20
0.876797
 30
0.0
 10
7.250855
 20
0.937672
 30
0.0
 10
7.200402
 20
0.998179
 30
0.0
 10
7.149493
 20
1.058312
 30
0.0
 10
7.098126
 20
1.118066
 30
0.0
 10
7.046307
 20
1.177436
 30
0.0
 10
6.994033
 20
1.236416
 30
0.0
 10
6.941310
 20
1.295003
 30
0.0
 10
6.888137
 20
1.353189
 30
0.0
 10
6.834517
 20
1.410971
 30
0.0
 10
6.780454
 20
1.468343
 30
0.0
 10
6.725948
 20
1.525302
 30
0.0
 10
6.670999
 20
1.581839
 30
0.0
 10
6.615611
 20
1.637951
 30
0.0
 10
6.530189
 20
1.722364
 30
0.0
 10
6.473933
 20
1.777612
 30
0.0
 10
6.473933
 20
1.777612
 30
0.0
 10
6.482276
 20
1.716252
 30
0.0
 10
6.490227
 20
1.654948
 30
0.0
 10
6.490227
 20
1.654948
 30
0.0
 10
6.459777
 20
1.685072
 30
0.0
 10
6.429298
 20
1.714968
 30
0.0
 10
6.398792
 20
1.744636
 30
0.0
 10
6.368263
 20
1.774076
 30
0.0
 10
6.368073
 20
1.774814
 30
0.0
 10
6.306851
 20
1.832118
 30
0.0
 10
6.306851
 20
1.832118
 30
0.0
 10
6.297347
 20
1.892624
 30
0.0
  0
SPLINE
  5
109
100
AcDbEntity
  8
0
 62
7
100
AcDbSpline
 70
8
 71
3
 72
8
 73
4
 74
0
 40
0
 40
0
 40
0
 40
0
 40
1
 40
1
 40
1
 40
1
 10
2.344599
 20
10.459599
 30
0.0
 10
2.517353
 20
10.473870
 30
0.0
 10
2.573725
 20
10.477647
 30
0.0
 10
2.690614
 20
10.488354
 30
0.0
  0
LWPOLYLINE
  5
10a
100
AcDbEntity
  8
0
 62
7
100
AcDbPolyline
 90
109
 70
0
 10
5.525928
 20
8.295516
 30
0.0
 10
5.525928
 20
8.295516
 30
0.0
 10
5.514424
 20
8.297333
 30
0.0
 10
5.514424
 20
8.297333
 30
0.0
 10
5.394244
 20
8.315281
 30
0.0
 10
5.301079
 20
8.328740
 30
0.0
 10
5.207847
 20
8.341401
 30
0.0
 10
5.114549
 20
8.353260
 30
0.0
 10
5.021187
 20
8.364314
 30
0.0
 10
4.927764
 20
8.374565
 30
0.0
 10
4.834282
 20
8.384010
 30
0.0
 10
4.740745
 20
8.392649
 30
0.0
 10
4.647155
 20
8.400480
 30
0.0
 10
4.553515
 20
8.407501
 30
0.0
 10
4.459825
 20
8.413712
 30
0.0
 10
4.366091
 20
8.419110
 30
0.0
 10
4.272314
 20
8.423695
 30
0.0
 10
4.178496
 20
8.427466
 30
0.0
 10
4.084641
 20
8.430420
 30
0.0
 10
3.990750
 20
8.432557
 30
0.0
 10
3.990750
 20
8.432557
 30
0.0
 10
3.917870
 20
8.433650
 30
0.0
 10
3.844984
 20
8.434247
 30
0.0
 10
3.844984
 20
8.434247
 30
0.0
 10
3.803469
 20
8.464772
 30
0.0
 10
3.761816
 20
8.495100
 30
0.0
 10
3.720024
 20
8.525223
 30
0.0
 10
3.678089
 20
8.555142
 30
0.0
 10
3.636018
 20
8.584859
 30
0.0
 10
3.593808
 20
8.614372
 30
0.0
 10
3.551458
 20
8.643681
 30
0.0
 10
3.508971
 20
8.672785
 30
0.0
 10
3.466348
 20
8.701687
 30
0.0
 10
3.423586
 20
8.730383
 30
0.0
 10
3.380690
 20
8.758877
 30
0.0
 10
3.337659
 20
8.787167
 30
0.0
 10
3.294490
 20
8.815251
 30
0.0
 10
3.251188
 20
8.843132
 30
0.0
 10
3.207751
 20
8.870809
 30
0.0
 10
3.164180
 20
8.898281
 30
0.0
 10
3.120474
 20
8.925548
 30
0.0
 10
3.076638
 20
8.952612
 30
0.0
 10
3.032669
 20
8.979472
 30
0.0
 10
2.988566
 20
9.006126
 30
0.0
 10
2.944334
 20
9.032576
 30
0.0
 10
2.899971
 20
9.058822
 30
0.0
 10
2.855477
 20
9.084862
 30
0.0
 10
2.810852
 20
9.110698
 30
0.0
 10
2.766099
 20
9.136329
 30
0.0
 10
2.721216
 20
9.161755
 30
0.0
 10
2.676205
 20
9.186976
 30
0.0
 10
2.631065
 20
9.211991
 30
0.0
 10
2.585799
 20
9.236803
 30
0.0
 10
2.540406
 20
9.261409
 30
0.0
 10
2.494887
 20
9.285811
 30
0.0
 10
2.422154
 20
9.326013
 30
0.0
 10
2.422154
 20
9.326013
 30
0.0
 10
2.415065
 20
9.325141
 30
0.0
 10
2.415065
 20
9.325141
 30
0.0
 10
2.352444
 20
9.317320
 30
0.0
 10
2.289959
 20
9.309158
 30
0.0
 10
2.289959
 20
9.309158
 30
0.0
 10
2.233230
 20
9.335831
 30
0.0
 10
2.149028
 20
9.377813
 30
0.0
 10
2.064470
 20
9.419086
 30
0.0
 10
1.996803
 20
9.449799
 30
0.0
 10
2.061422
 20
9.458550
 30
0.0
 10
2.122496
 20
9.469419
 30
0.0
 10
2.025909
 20
9.521812
 30
0.0
 10
1.939085
 20
9.562540
 30
0.0
 10
1.851916
 20
9.602535
 30
0.0
 10
1.764409
 20
9.641795
 30
0.0
 10
1.676572
 20
9.680320
 30
0.0
 10
1.588413
 20
9.718109
 30
0.0
 10
1.499937
 20
9.755162
 30
0.0
 10
1.411154
 20
9.791477
 30
0.0
 10
1.322070
 20
9.827055
 30
0.0
 10
1.232692
 20
9.861894
 30
0.0
 10
1.143030
 20
9.895993
 30
0.0
 10
1.053090
 20
9.929352
 30
0.0
 10
0.962879
 20
9.961971
 30
0.0
 10
0.872404
 20
9.993847
 30
0.0
 10
0.781674
 20
10.024982
 30
0.0
 10
0.690697
 20
10.055373
 30
0.0
 10
0.690697
 20
10.055373
 30
0.0
 10
0.766575
 20
10.075452
 30
0.0
 10
0.842567
 20
10.095020
 30
0.0
 10
0.842567
 20
10.095020
 30
0.0
 10
0.941755
 20
10.119747
 30
0.0
 10
1.041123
 20
10.143607
 30
0.0
 10
1.140670
 20
10.166599
 30
0.0
 10
1.240389
 20
10.188725
 30
0.0
 10
1.340277
 20
10.209988
 30
0.0
 10
1.440329
 20
10.230389
 30
0.0
 10
1.540542
 20
10.249929
 30
0.0
 10
1.640909
 20
10.268610
 30
0.0
 10
1.741429
 20
10.286434
 30
0.0
 10
1.842094
 20
10.303403
 30
0.0
 10
1.942902
 20
10.319517
 30
0.0
 10
2.043849
 20
10.334780
 30
0.0
 10
2.144929
 20
10.349192
 30
0.0
 10
2.246139
 20
10.362755
 30
0.0
 10
2.347474
 20
10.375471
 30
0.0
 10
2.448929
 20
10.387342
 30
0.0
 10
2.448929
 20
10.387342
 30
0.0
 10
2.461370
 20
10.388740
 30
0.0
 10
2.490969
 20
10.392223
 30
0.0
 10
2.426109
 20
10.423062
 30
0.0
 10
2.344599
 20
10.459599
 30
0.0
  0
SPLINE
  5
10b
100
AcDbEntity
  8
0
 62
7
100
AcDbSpline
 70
8
 71
3
 72
8
 73
4
 74
0
 40
0
 40
0
 40
0
 40
0
 40
1
 40
1
 40
1
 40
1
 10
2.819883
 20
10.422967
 30
0.0
 10
2.823958
 20
10.422967
 30
0.0
 10
2.848754
 20
10.426641
 30
0.0
 10
3.043946
 20
10.439881
 30
0.0
  0
LWPOLYLINE
  5
10c
100
AcDbEntity
  8
0
 62
7
100
AcDbPolyline
 90
3
 70
0
 10
2.690614
 20
10.488354
 30
0.0
 10
2.755389
 20
10.455826
 30
0.0
 10
2.819883
 20
10.422967
 30
0.0
  0
LWPOLYLINE
  5
10d
100
AcDbEntity
  8
0
 62
7
100
AcDbPolyline
 90
107
 70
0
 10
3.043946
 20
10.439881
 30
0.0
 10
3.137767
 20
10.445533
 30
0.0
 10
3.231631
 20
10.450478
 30
0.0
 10
3.325530
 20
10.454716
 30
0.0
 10
3.419460
 20
10.458248
 30
0.0
 10
3.513416
 20
10.461077
 30
0.0
 10
3.607392
 20
10.463202
 30
0.0
 10
3.701384
 20
10.464625
 30
0.0
 10
3.795386
 20
10.465346
 30
0.0
 10
3.889393
 20
10.465367
 30
0.0
 10
3.983399
 20
10.464690
 30
0.0
 10
4.077400
 20
10.463314
 30
0.0
 10
4.171390
 20
10.461241
 30
0.0
 10
4.265364
 20
10.458472
 30
0.0
 10
4.359317
 20
10.455009
 30
0.0
 10
4.359317
 20
10.455009
 30
0.0
 10
4.436519
 20
10.451643
 30
0.0
 10
4.513700
 20
10.447809
 30
0.0
 10
4.513700
 20
10.447809
 30
0.0
 10
4.599887
 20
10.389762
 30
0.0
 10
4.685598
 20
10.331016
 30
0.0
 10
4.770826
 20
10.271575
 30
0.0
 10
4.855561
 20
10.211438
 30
0.0
 10
4.939798
 20
10.150612
 30
0.0
 10
5.023534
 20
10.089097
 30
0.0
 10
5.106758
 20
10.026899
 30
0.0
 10
5.189466
 20
9.964019
 30
0.0
 10
5.271650
 20
9.900461
 30
0.0
 10
5.353304
 20
9.836227
 30
0.0
 10
5.434420
 20
9.771321
 30
0.0
 10
5.514993
 20
9.705744
 30
0.0
 10
5.595018
 20
9.639503
 30
0.0
 10
5.674486
 20
9.572597
 30
0.0
 10
5.753393
 20
9.505033
 30
0.0
 10
5.860047
 20
9.413417
 30
0.0
 10
5.860047
 20
9.413417
 30
0.0
 10
5.991977
 20
9.390526
 30
0.0
 10
6.034488
 20
9.351121
 30
0.0
 10
6.242366
 20
9.166072
 30
0.0
 10
6.175159
 20
9.180036
 30
0.0
 10
6.107968
 20
9.193606
 30
0.0
 10
6.107968
 20
9.193606
 30
0.0
 10
6.095147
 20
9.196151
 30
0.0
 10
6.095147
 20
9.196151
 30
0.0
 10
6.135877
 20
9.157755
 30
0.0
 10
6.213366
 20
9.087166
 30
0.0
 10
6.253735
 20
9.048407
 30
0.0
 10
6.293922
 20
9.009465
 30
0.0
 10
6.333929
 20
8.970344
 30
0.0
 10
6.373752
 20
8.931042
 30
0.0
 10
6.413392
 20
8.891559
 30
0.0
 10
6.452844
 20
8.851893
 30
0.0
 10
6.492112
 20
8.812048
 30
0.0
 10
6.531195
 20
8.772023
 30
0.0
 10
6.570090
 20
8.731818
 30
0.0
 10
6.608797
 20
8.691431
 30
0.0
 10
6.647317
 20
8.650868
 30
0.0
 10
6.685649
 20
8.610124
 30
0.0
 10
6.723787
 20
8.569200
 30
0.0
 10
6.761735
 20
8.528097
 30
0.0
 10
6.799493
 20
8.486816
 30
0.0
 10
6.837058
 20
8.445355
 30
0.0
 10
6.874431
 20
8.403717
 30
0.0
 10
6.911610
 20
8.361901
 30
0.0
 10
6.948593
 20
8.319906
 30
0.0
 10
6.985382
 20
8.277733
 30
0.0
 10
7.021976
 20
8.235383
 30
0.0
 10
7.058373
 20
8.192856
 30
0.0
 10
7.094574
 20
8.150153
 30
0.0
 10
7.130576
 20
8.107272
 30
0.0
 10
7.166380
 20
8.064215
 30
0.0
 10
7.201990
 20
8.020986
 30
0.0
 10
7.237400
 20
7.977580
 30
0.0
 10
7.272608
 20
7.933998
 30
0.0
 10
7.307615
 20
7.890241
 30
0.0
 10
7.342420
 20
7.846308
 30
0.0
 10
7.342420
 20
7.846308
 30
0.0
 10
7.273870
 20
7.869017
 30
0.0
 10
7.205180
 20
7.891306
 30
0.0
 10
7.205180
 20
7.891306
 30
0.0
 10
7.122554
 20
7.917503
 30
0.0
 10
7.039734
 20
7.943084
 30
0.0
 10
6.956726
 20
7.968051
 30
0.0
 10
6.873533
 20
7.992400
 30
0.0
 10
6.790162
 20
8.016129
 30
0.0
 10
6.706617
 20
8.039234
 30
0.0
 10
6.622902
 20
8.061714
 30
0.0
 10
6.539022
 20
8.083563
 30
0.0
 10
6.454982
 20
8.104781
 30
0.0
 10
6.370788
 20
8.125364
 30
0.0
 10
6.286442
 20
8.145310
 30
0.0
 10
6.201951
 20
8.164614
 30
0.0
 10
6.117318
 20
8.183276
 30
0.0
 10
6.032550
 20
8.201291
 30
0.0
 10
5.923025
 20
8.222966
 30
0.0
 10
5.837998
 20
8.239682
 30
0.0
 10
5.837998
 20
8.239682
 30
0.0
 10
5.885198
 20
8.191750
 30
0.0
 10
5.932038
 20
8.143610
 30
0.0
 10
5.932038
 20
8.143610
 30
0.0
 10
5.841769
 20
8.161534
 30
0.0
 10
5.775969
 20
8.174411
 30
0.0
 10
5.685393
 20
8.190852
 30
0.0
 10
5.621757
 20
8.202854
 30
0.0
 10
5.621757
 20
8.202854
 30
0.0
 10
5.574030
 20
8.249299
 30
0.0
 10
5.525928
 20
8.295516
 30
0.0
  0
LWPOLYLINE
  5
10e
100
AcDbEntity
  8
0
 62
7
100
AcDbPolyline
 90
202
 70
1
 10
6.642236
 20
4.709565
 30
0.0
 10
6.642236
 20
4.709565
 30
0.0
 10
6.637414
 20
4.664995
 30
0.0
 10
6.632341
 20
4.620537
 30
0.0
 10
6.632341
 20
4.620537
 30
0.0
 10
6.678906
 20
4.567171
 30
0.0
 10
6.701459
 20
4.542123
 30
0.0
 10
6.729581
 20
4.509694
 30
0.0
 10
6.774614
 20
4.455113
 30
0.0
 10
6.774614
 20
4.455113
 30
0.0
 10
6.780854
 20
4.499920
 30
0.0
 10
6.786846
 20
4.544847
 30
0.0
 10
6.786846
 20
4.544847
 30
0.0
 10
6.827089
 20
4.496000
 30
0.0
 10
6.884336
 20
4.425074
 30
0.0
 10
6.923765
 20
4.375605
 30
0.0
 10
6.962786
 20
4.325829
 30
0.0
 10
7.001400
 20
4.275748
 30
0.0
 10
7.039604
 20
4.225364
 30
0.0
 10
7.077402
 20
4.174684
 30
0.0
 10
7.114794
 20
4.123708
 30
0.0
 10
7.151778
 20
4.072438
 30
0.0
 10
7.188357
 20
4.020882
 30
0.0
 10
7.224528
 20
3.969037
 30
0.0
 10
7.260291
 20
3.916909
 30
0.0
 10
7.295649
 20
3.864501
 30
0.0
 10
7.330603
 20
3.811817
 30
0.0
 10
7.365151
 20
3.758858
 30
0.0
 10
7.399292
 20
3.705627
 30
0.0
 10
7.399292
 20
3.705627
 30
0.0
 10
7.429092
 20
3.658418
 30
0.0
 10
7.458575
 20
3.611001
 30
0.0
 10
7.458575
 20
3.611001
 30
0.0
 10
7.477509
 20
3.692302
 30
0.0
 10
7.495625
 20
3.773788
 30
0.0
 10
7.512927
 20
3.855453
 30
0.0
 10
7.529414
 20
3.937287
 30
0.0
 10
7.545087
 20
4.019282
 30
0.0
 10
7.559949
 20
4.101431
 30
0.0
 10
7.574001
 20
4.183725
 30
0.0
 10
7.587243
 20
4.266156
 30
0.0
 10
7.599678
 20
4.348717
 30
0.0
 10
7.611306
 20
4.431398
 30
0.0
 10
7.622128
 20
4.514192
 30
0.0
 10
7.632146
 20
4.597090
 30
0.0
 10
7.641362
 20
4.680086
 30
0.0
 10
7.649776
 20
4.763169
 30
0.0
 10
7.660872
 20
4.882028
 30
0.0
 10
7.667686
 20
4.965264
 30
0.0
 10
7.667686
 20
4.965264
 30
0.0
 10
7.674032
 20
4.957294
 30
0.0
 10
7.674032
 20
4.957294
 30
0.0
 10
7.701172
 20
4.922957
 30
0.0
 10
7.728178
 20
4.888430
 30
0.0
 10
7.728178
 20
4.888430
 30
0.0
 10
7.734556
 20
4.967405
 30
0.0
 10
7.736738
 20
5.010740
 30
0.0
 10
7.739844
 20
5.048561
 30
0.0
 10
7.744086
 20
5.127658
 30
0.0
 10
7.744086
 20
5.127658
 30
0.0
 10
7.715885
 20
5.161815
 30
0.0
 10
7.687553
 20
5.195778
 30
0.0
 10
7.687553
 20
5.195778
 30
0.0
 10
7.680930
 20
5.203655
 30
0.0
 10
7.680930
 20
5.203655
 30
0.0
 10
7.685635
 20
5.323110
 30
0.0
 10
7.687789
 20
5.401318
 30
0.0
 10
7.689254
 20
5.479532
 30
0.0
 10
7.690033
 20
5.557745
 30
0.0
 10
7.690130
 20
5.635952
 30
0.0
 10
7.689548
 20
5.714146
 30
0.0
 10
7.688289
 20
5.792322
 30
0.0
 10
7.686357
 20
5.870472
 30
0.0
 10
7.683754
 20
5.948590
 30
0.0
 10
7.680484
 20
6.026671
 30
0.0
 10
7.676550
 20
6.104709
 30
0.0
 10
7.671955
 20
6.182696
 30
0.0
 10
7.666703
 20
6.260628
 30
0.0
 10
7.660795
 20
6.338497
 30
0.0
 10
7.654235
 20
6.416298
 30
0.0
 10
7.647027
 20
6.494024
 30
0.0
 10
7.647027
 20
6.494024
 30
0.0
 10
7.603089
 20
6.535886
 30
0.0
 10
7.558855
 20
6.577451
 30
0.0
 10
7.558855
 20
6.577451
 30
0.0
 10
7.507288
 20
6.625250
 30
0.0
 10
7.455352
 20
6.672667
 30
0.0
 10
7.403046
 20
6.719694
 30
0.0
 10
7.350375
 20
6.766328
 30
0.0
 10
7.297341
 20
6.812566
 30
0.0
 10
7.243947
 20
6.858405
 30
0.0
 10
7.190196
 20
6.903839
 30
0.0
 10
7.136085
 20
6.948861
 30
0.0
 10
7.081620
 20
6.993467
 30
0.0
 10
7.026804
 20
7.037655
 30
0.0
 10
6.971637
 20
7.081419
 30
0.0
 10
6.916122
 20
7.124754
 30
0.0
 10
6.860260
 20
7.167656
 30
0.0
 10
6.804054
 20
7.210119
 30
0.0
 10
6.747508
 20
7.252142
 30
0.0
 10
6.661688
 20
7.314648
 30
0.0
 10
6.661688
 20
7.314648
 30
0.0
 10
6.651550
 20
7.362967
 30
0.0
 10
6.641126
 20
7.411310
 30
0.0
 10
6.641126
 20
7.411310
 30
0.0
 10
6.606735
 20
7.435060
 30
0.0
 10
6.543008
 20
7.479189
 30
0.0
 10
6.478884
 20
7.522765
 30
0.0
 10
6.431605
 20
7.554082
 30
0.0
 10
6.431605
 20
7.554082
 30
0.0
 10
6.443157
 20
7.506513
 30
0.0
 10
6.454423
 20
7.458962
 30
0.0
 10
6.454423
 20
7.458962
 30
0.0
 10
6.446349
 20
7.464399
 30
0.0
 10
6.446349
 20
7.464399
 30
0.0
 10
6.365885
 20
7.518097
 30
0.0
 10
6.302296
 20
7.559544
 30
0.0
 10
6.238349
 20
7.600431
 30
0.0
 10
6.174047
 20
7.640754
 30
0.0
 10
6.109396
 20
7.680508
 30
0.0
 10
6.044400
 20
7.719690
 30
0.0
 10
5.979062
 20
7.758294
 30
0.0
 10
5.913387
 20
7.796317
 30
0.0
 10
5.847380
 20
7.833753
 30
0.0
 10
5.781045
 20
7.870599
 30
0.0
 10
5.714385
 20
7.906849
 30
0.0
 10
5.647403
 20
7.942497
 30
0.0
 10
5.580106
 20
7.977542
 30
0.0
 10
5.512497
 20
8.011977
 30
0.0
 10
5.444581
 20
8.045800
 30
0.0
 10
5.376363
 20
8.079006
 30
0.0
 10
5.376363
 20
8.079006
 30
0.0
 10
5.321440
 20
8.105181
 30
0.0
 10
5.266330
 20
8.130955
 30
0.0
 10
5.266330
 20
8.130955
 30
0.0
 10
5.290206
 20
8.064723
 30
0.0
 10
5.313514
 20
7.998303
 30
0.0
 10
5.336246
 20
7.931692
 30
0.0
 10
5.358402
 20
7.864896
 30
0.0
 10
5.379979
 20
7.797919
 30
0.0
 10
5.400971
 20
7.730760
 30
0.0
 10
5.421376
 20
7.663423
 30
0.0
 10
5.441190
 20
7.595909
 30
0.0
 10
5.460411
 20
7.528224
 30
0.0
 10
5.479037
 20
7.460368
 30
0.0
 10
5.497061
 20
7.392342
 30
0.0
 10
5.514481
 20
7.324150
 30
0.0
 10
5.531294
 20
7.255794
 30
0.0
 10
5.547497
 20
7.187278
 30
0.0
 10
5.568309
 20
7.092482
 30
0.0
 10
5.583278
 20
7.023648
 30
0.0
 10
5.578536
 20
7.026496
 30
0.0
 10
5.578536
 20
7.026496
 30
0.0
 10
5.536354
 20
7.051457
 30
0.0
 10
5.494100
 20
7.076103
 30
0.0
 10
5.494100
 20
7.076103
 30
0.0
 10
5.509448
 20
7.005482
 30
0.0
 10
5.518914
 20
6.960815
 30
0.0
 10
5.532942
 20
6.889869
 30
0.0
 10
5.541080
 20
6.849238
 30
0.0
 10
5.541080
 20
6.849238
 30
0.0
 10
5.582233
 20
6.823818
 30
0.0
 10
5.623307
 20
6.798085
 30
0.0
 10
5.627920
 20
6.795150
 30
0.0
 10
5.627920
 20
6.795150
 30
0.0
 10
5.645632
 20
6.690702
 30
0.0
 10
5.657395
 20
6.616607
 30
0.0
 10
5.668430
 20
6.542401
 30
0.0
 10
5.678734
 20
6.468092
 30
0.0
 10
5.688302
 20
6.393686
 30
0.0
 10
5.697132
 20
6.319192
 30
0.0
 10
5.705220
 20
6.244617
 30
0.0
 10
5.712562
 20
6.169968
 30
0.0
 10
5.719154
 20
6.095253
 30
0.0
 10
5.724994
 20
6.020479
 30
0.0
 10
5.730076
 20
5.945654
 30
0.0
 10
5.734399
 20
5.870785
 30
0.0
 10
5.737957
 20
5.795880
 30
0.0
 10
5.740748
 20
5.720947
 30
0.0
 10
5.742768
 20
5.645991
 30
0.0
 10
5.744013
 20
5.571023
 30
0.0
 10
5.744013
 20
5.571023
 30
0.0
 10
5.787386
 20
5.535737
 30
0.0
 10
5.830475
 20
5.500127
 30
0.0
 10
5.830475
 20
5.500127
 30
0.0
 10
5.882518
 20
5.456368
 30
0.0
 10
5.934155
 20
5.412125
 30
0.0
 10
5.985382
 20
5.367404
 30
0.0
 10
6.036196
 20
5.322208
 30
0.0
 10
6.086594
 20
5.276546
 30
0.0
 10
6.136573
 20
5.230419
 30
0.0
 10
6.186118
 20
5.183824
 30
0.0
 10
6.235246
 20
5.136784
 30
0.0
 10
6.283954
 20
5.089304
 30
0.0
 10
6.332237
 20
5.041388
 30
0.0
 10
6.380092
 20
4.993041
 30
0.0
 10
6.427504
 20
4.944257
 30
0.0
 10
6.474479
 20
4.895050
 30
0.0
 10
6.521023
 20
4.845434
 30
0.0
 10
6.567121
 20
4.795404
 30
0.0
 10
6.636277
 20
4.716233
 30
0.0
 10
6.636277
 20
4.716233
 30
0.0
  0
ENDSEC
  0
SECTION
  2
OBJECTS
  0
DICTIONARY
  5
C
330
0
100
AcDbDictionary
  3
ACAD_GROUP
350
D
  3
ACAD_MLINESTYLE
350
17
  0
DICTIONARY
  5
D
330
C
100
AcDbDictionary
  0
DICTIONARY
  5
1A
330
C
100
AcDbDictionary
  0
DICTIONARY
  5
17
330
C
100
AcDbDictionary
  3
STANDARD
350
18
  0
DICTIONARY
  5
19
330
C
100
AcDbDictionary
  0
ENDSEC
  0
EOF
